<svg width="406" height="216" viewBox="0 0 406 216" fill="none" xmlns="http://www.w3.org/2000/svg">
<path d="M216.526 216C308.203 216 382.522 206.402 382.522 194.562C382.522 182.722 308.203 173.124 216.526 173.124C124.848 173.124 50.5293 182.722 50.5293 194.562C50.5293 206.402 124.848 216 216.526 216Z" fill="#BED5DC"/>
<g opacity="0.6">
<path d="M308.49 160.588C308.49 160.588 345.125 31.5053 379.852 42.7413C414.578 53.9771 336.098 123.81 326.626 161.724L308.49 160.588Z" fill="#B2C9C6"/>
</g>
<path d="M322.191 147.657C322.191 147.657 367.019 70.2657 391.803 83.4518C416.587 96.6382 347.954 128.528 335.762 151.479L322.191 147.657Z" fill="#CFD3A3"/>
<path d="M329.767 149.861C337.898 133.859 352.178 119.396 362.724 110.082C374.159 99.9843 383.786 93.5977 383.882 93.5343L383.485 92.9365C383.389 93.0001 373.72 99.4143 362.248 109.545C351.655 118.901 337.309 133.434 329.127 149.537L329.767 149.861Z" fill="#C4C695"/>
<path d="M388.644 161.167C377.883 164.241 380.783 180.612 368.142 178.369C357.45 176.466 356.5 175.556 353.058 178.82C351.877 179.938 350.882 181.234 350.062 182.637C349.079 184.318 347.132 186.828 343.973 187.598C324.677 192.297 296.088 165.24 315.408 148.028C316.803 146.785 318.915 146.203 321.26 145.677C333.984 142.832 338.378 148.458 347.509 132.675C356.644 116.887 371.818 137.666 380.39 136.337C388.961 135.009 396.389 131.93 403.708 140.606C411.027 149.289 399.406 158.1 388.644 161.167Z" fill="#B2C9C6"/>
<g opacity="0.5">
<path d="M323.007 168.579L322.557 167.998C322.813 167.8 348.899 148.124 405.424 143.093L405.489 143.825C349.176 148.837 323.262 168.382 323.007 168.579Z" fill="#74A1BD"/>
<path d="M356.796 144.455C348.888 138.238 347.223 133 347.156 132.78L347.86 132.566C347.876 132.618 349.546 137.819 357.252 143.878L356.796 144.455Z" fill="#74A1BD"/>
<path d="M358.607 152.279C356.266 148.727 356.115 143.396 358.169 136.865C359.707 131.974 361.963 128.069 361.986 128.03L362.622 128.399C362.534 128.551 353.84 143.707 359.222 151.875L358.607 152.279Z" fill="#74A1BD"/>
<path d="M373.422 150.028C372.485 149.344 371.972 148.893 371.949 148.872L372.441 148.325C372.548 148.421 383.342 157.905 398.259 156.477L398.329 157.207C386.31 158.359 376.915 152.576 373.422 150.028Z" fill="#74A1BD"/>
<path d="M381.881 166.499C378.22 162.924 376.997 159.193 376.616 156.693C376.201 153.971 376.654 152.114 376.674 152.036L377.388 152.214C377.37 152.286 375.693 159.43 382.396 165.974L381.881 166.499Z" fill="#74A1BD"/>
</g>
<path d="M395.232 68.4303C398.031 66.4994 399.594 66.9796 400.495 68.2808C401.397 69.5819 401.295 71.2108 398.496 73.1417C393.397 76.6591 389.301 76.0031 389.301 76.0031C389.301 76.0031 390.059 71.9986 395.232 68.4303Z" fill="#B2C9C6"/>
<path d="M387.71 124.922C391.275 124.311 392.53 125.26 392.77 126.655C393.009 128.049 392.143 129.361 388.578 129.972C382.083 131.084 378.51 129.096 378.51 129.096C378.51 129.096 381.12 126.05 387.71 124.922Z" fill="#B2C9C6"/>
<path d="M377.047 119.355C378.968 116.552 380.432 116.328 381.533 117.079C382.633 117.83 382.954 119.273 381.033 122.076C377.534 127.181 373.85 128.288 373.85 128.288C373.85 128.288 373.497 124.534 377.047 119.355Z" fill="#B2C9C6"/>
<path d="M348.549 36.4551C347.667 36.4551 346.914 35.7966 346.796 34.9232L346.467 32.4682C346.39 31.8975 345.991 31.4207 345.45 31.2535C345.303 31.2083 345.158 31.1598 345.013 31.1087C344.857 31.0537 344.695 31.0258 344.53 31.0258C344.12 31.0258 343.725 31.1994 343.445 31.5021L341.652 33.4437C341.318 33.8053 340.843 34.0129 340.35 34.0129C339.905 34.0129 339.479 33.847 339.151 33.5456L337.054 31.6171C336.706 31.2972 336.504 30.8613 336.484 30.3897C336.465 29.9182 336.631 29.4673 336.952 29.1204L338.493 27.4547C338.922 26.9899 339.006 26.3034 338.701 25.7465L338.691 25.7295C338.432 25.253 337.936 24.9604 337.396 24.9604C337.33 24.9604 337.263 24.965 337.198 24.9737L335.085 25.2581C335.006 25.2688 334.925 25.2741 334.846 25.2741C333.965 25.2741 333.212 24.616 333.094 23.7434L332.713 20.9227C332.65 20.4549 332.774 19.9907 333.06 19.6155C333.347 19.2403 333.764 18.9992 334.233 18.9366L336.347 18.6536C336.95 18.5729 337.447 18.124 337.586 17.5369L337.591 17.5146C337.738 16.8972 337.476 16.2573 336.939 15.9225L335.012 14.7201C334.184 14.2038 333.932 13.1118 334.45 12.2861L335.962 9.87326C336.287 9.35344 336.849 9.04306 337.464 9.04306C337.795 9.04306 338.119 9.13611 338.401 9.31227L340.643 10.7123C341.134 11.0186 341.789 11.0053 342.26 10.6789C342.386 10.5913 342.514 10.5062 342.644 10.4234C343.121 10.1195 343.38 9.55437 343.303 8.98344L342.973 6.52863C342.91 6.06117 343.033 5.59718 343.32 5.22214C343.606 4.84709 344.022 4.60595 344.491 4.54318L347.314 4.16388C347.393 4.15331 347.473 4.14795 347.553 4.14795C348.434 4.14795 349.187 4.80624 349.305 5.67935L349.55 7.50425C349.637 8.14961 350.134 8.65587 350.788 8.76359C351.32 8.85159 351.851 8.97824 352.367 9.14005C352.91 9.3107 353.524 9.1492 353.905 8.73772L355.495 7.01802C355.829 6.65685 356.304 6.44978 356.796 6.44978C357.242 6.44978 357.668 6.61601 357.996 6.91771L360.092 8.84655C360.439 9.16639 360.641 9.60231 360.66 10.0737C360.679 10.5453 360.513 10.9959 360.192 11.3425L359.069 12.5583C358.624 13.0395 358.549 13.7413 358.883 14.3047C358.953 14.4228 359.021 14.5424 359.087 14.6635C359.34 15.1283 359.832 15.417 360.372 15.417C360.438 15.417 360.505 15.4126 360.57 15.4038L362.063 15.2048C362.141 15.1944 362.221 15.189 362.3 15.189C363.181 15.189 363.934 15.8471 364.052 16.7199L364.432 19.5387C364.495 20.0065 364.371 20.4707 364.085 20.8459C363.798 21.2209 363.382 21.462 362.913 21.5248L361.422 21.7245C360.818 21.8054 360.321 22.25 360.185 22.8312C360.153 22.9658 360.12 23.0999 360.083 23.2329C359.911 23.8635 360.169 24.5203 360.725 24.8669L362.131 25.7435C362.532 25.9936 362.811 26.3846 362.918 26.8443C363.024 27.3041 362.945 27.7777 362.694 28.1778L361.183 30.5891C360.858 31.1089 360.296 31.4191 359.681 31.4191C359.35 31.4191 359.026 31.3264 358.745 31.1509L356.757 29.9115C356.28 29.6143 355.643 29.622 355.166 29.9295C354.711 30.2224 354.232 30.4847 353.744 30.7091C353.143 30.9854 352.798 31.6044 352.885 32.2493L353.13 34.0755C353.26 35.0405 352.579 35.9311 351.612 36.0609L348.786 36.4396C348.707 36.4497 348.627 36.4551 348.549 36.4551ZM344.53 30.7326C344.728 30.7326 344.924 30.7662 345.111 30.8324C345.252 30.8821 345.394 30.9294 345.537 30.9734C346.187 31.1744 346.666 31.7458 346.758 32.4293L347.087 34.8842C347.185 35.6127 347.813 36.1619 348.549 36.1619C348.614 36.1619 348.681 36.1575 348.747 36.1486L351.573 35.77C352.379 35.6618 352.948 34.9189 352.839 34.114L352.593 32.2878C352.489 31.5144 352.902 30.7728 353.621 30.4424C354.097 30.2237 354.563 29.968 355.007 29.6827C355.578 29.3148 356.341 29.3062 356.912 29.6625L358.9 30.9018C359.135 31.0482 359.405 31.1256 359.681 31.1256C360.194 31.1256 360.663 30.8668 360.934 30.4333L362.445 28.022C362.654 27.6883 362.72 27.2932 362.632 26.9098C362.543 26.5264 362.31 26.2002 361.975 25.9916L360.569 25.115C359.903 24.6993 359.594 23.9117 359.8 23.1554C359.835 23.0259 359.868 22.8953 359.899 22.764C360.063 22.0651 360.659 21.5305 361.383 21.4337L362.874 21.234C363.265 21.1816 363.612 20.9804 363.851 20.6675C364.091 20.3546 364.193 19.9674 364.141 19.5774L363.76 16.7586C363.662 16.0307 363.034 15.4817 362.3 15.4817C362.234 15.4817 362.168 15.4861 362.102 15.495L360.609 15.694C360.531 15.7044 360.451 15.7096 360.372 15.7098C359.725 15.7098 359.133 15.3623 358.829 14.8029C358.764 14.6851 358.698 14.5687 358.63 14.4536C358.23 13.7778 358.319 12.9361 358.853 12.3591L359.977 11.1435C360.244 10.8542 360.383 10.4784 360.367 10.0852C360.351 9.69205 360.183 9.32852 359.893 9.06167L357.797 7.13283C357.524 6.88112 357.168 6.74249 356.796 6.74249C356.385 6.74249 355.99 6.91535 355.711 7.21642L354.121 8.93613C353.788 9.29603 353.314 9.50248 352.82 9.50248C352.637 9.50248 352.455 9.47456 352.279 9.41936C351.777 9.26181 351.259 9.13832 350.74 9.05252C349.959 8.92367 349.364 8.31695 349.259 7.54305L349.014 5.71814C348.916 4.98998 348.288 4.44082 347.553 4.44082C347.487 4.44082 347.42 4.44524 347.354 4.45407L344.53 4.83337C344.139 4.88589 343.793 5.08698 343.553 5.39972C343.314 5.71247 343.211 6.09934 343.264 6.48936L343.595 8.94402C343.687 9.6277 343.375 10.3052 342.802 10.67C342.676 10.7506 342.551 10.8336 342.428 10.9191C342.134 11.1227 341.789 11.2302 341.43 11.2302C341.097 11.2302 340.771 11.1369 340.488 10.9604L338.245 9.5602C338.01 9.41337 337.74 9.33578 337.464 9.33578C336.951 9.33578 336.482 9.59458 336.211 10.0281L334.699 12.441C334.49 12.7747 334.423 13.1696 334.512 13.553C334.601 13.9364 334.834 14.2626 335.168 14.4711L337.095 15.6735C337.739 16.0752 338.054 16.842 337.878 17.5818L337.73 17.57L337.872 17.6036C337.706 18.3084 337.109 18.847 336.387 18.9437L334.272 19.2266C333.881 19.279 333.534 19.4801 333.295 19.793C333.055 20.1059 332.952 20.4931 333.005 20.8831L333.386 23.7038C333.484 24.4316 334.112 24.9805 334.846 24.9805C334.912 24.9805 334.98 24.9759 335.046 24.9671L337.159 24.6827C337.238 24.6721 337.318 24.6668 337.397 24.6668C338.044 24.6668 338.638 25.018 338.947 25.5834L338.959 25.6053C339.324 26.2728 339.224 27.0956 338.708 27.6528L337.168 29.3185C336.9 29.6079 336.762 29.9839 336.778 30.3773C336.794 30.7708 336.962 31.1343 337.252 31.4008L339.35 33.3293C339.623 33.5807 339.978 33.7191 340.35 33.7191C340.761 33.7191 341.157 33.546 341.436 33.2443L343.229 31.3027C343.564 30.9406 344.038 30.7326 344.53 30.7326Z" fill="#436E8E"/>
<path d="M349.054 26.814C345.865 26.814 342.314 23.682 341.884 20.4908C341.671 18.9085 342.235 17.2943 343.472 15.9453C344.639 14.6723 346.253 13.8164 347.901 13.5967C348.103 13.5694 348.308 13.5557 348.512 13.5557C351.693 13.5557 354.27 16.8207 354.681 19.87C354.903 21.5088 354.522 23.1196 353.61 24.4056C352.68 25.7168 351.282 26.5577 349.673 26.7735C349.471 26.8004 349.263 26.814 349.054 26.814ZM348.512 13.8487C348.321 13.8487 348.129 13.8616 347.94 13.8872C346.359 14.0979 344.81 14.9202 343.688 16.1433C342.511 17.4269 341.974 18.957 342.175 20.4518C342.587 23.5148 345.994 26.521 349.054 26.521C349.25 26.521 349.445 26.508 349.633 26.4828C351.161 26.2779 352.488 25.4801 353.37 24.236C354.24 23.0109 354.601 21.4741 354.39 19.909C353.996 16.9823 351.54 13.8487 348.512 13.8487Z" fill="#436E8E"/>
<path d="M204.307 70.5629L212.242 66.685C215.276 65.2027 216.532 61.5474 215.048 58.5194L210.328 48.8901C208.843 45.8604 205.178 44.6063 202.142 46.0889L196.529 48.8308C194.107 50.0133 191.196 49.4754 189.361 47.5033C189.011 47.1272 188.654 46.7565 188.29 46.3917C186.514 44.6145 186.06 41.9084 187.094 39.6206L189.426 34.461C190.816 31.3866 189.444 27.7702 186.362 26.3847L176.567 21.9805C173.488 20.5963 169.868 21.963 168.478 25.0339L166.141 30.1972C165.108 32.4811 162.779 33.9313 160.272 33.7824C159.76 33.7521 159.248 33.731 158.736 33.719C156.038 33.6561 153.702 31.8351 152.986 29.2385L151.328 23.2279C150.432 19.9768 147.064 18.0667 143.806 18.9617L133.444 21.8083C130.187 22.7032 128.273 26.0625 129.169 29.3131L131.512 37.8191C132.144 40.1116 131.373 42.5478 129.565 44.0956C128.044 45.3975 126.606 46.8122 125.266 48.3338C123.477 50.3649 120.588 51.0247 118.117 49.9132L111.777 47.0603C108.696 45.674 105.072 47.0431 103.684 50.1179L99.2721 59.8896C97.8842 62.9636 99.2556 66.5779 102.336 67.9636L110.865 71.8003C113.03 72.7744 114.468 74.9029 114.493 77.2728C114.5 77.8453 114.517 78.4167 114.546 78.9865C114.669 81.412 113.309 83.6709 111.122 84.7376L102.164 89.1078C99.1275 90.5889 97.8699 94.2459 99.3549 97.2751L104.078 106.912C105.563 109.941 109.227 111.195 112.262 109.714L119.958 105.956C122.319 104.804 125.15 105.29 127 107.155C127.02 107.175 127.04 107.195 127.06 107.215C128.843 109.005 129.323 111.712 128.283 114.012L124.975 121.329C123.585 124.404 124.957 128.02 128.039 129.406L137.841 133.813C140.923 135.198 144.546 133.827 145.933 130.753L149.232 123.438C150.27 121.137 152.622 119.702 155.146 119.85C155.178 119.852 155.21 119.854 155.242 119.856C157.867 120.005 160.108 121.8 160.805 124.33L163.076 132.568C163.972 135.821 167.343 137.731 170.602 136.834L180.966 133.981C184.223 133.085 186.135 129.723 185.237 126.473L182.586 116.878C181.939 114.536 182.734 112.023 184.637 110.509C185.084 110.154 185.524 109.789 185.957 109.415C187.753 107.865 190.302 107.531 192.467 108.505L200.996 112.346C204.076 113.733 207.7 112.365 209.089 109.291L213.507 99.5139C214.896 96.44 213.525 92.8246 210.445 91.4386L204.1 88.584C201.632 87.4733 200.215 84.8785 200.553 82.1976C200.806 80.1899 200.914 78.18 200.882 76.1829C200.845 73.8033 202.165 71.61 204.307 70.5629ZM179.866 87.1968C174.737 98.5485 156.307 104.384 144.932 99.2663C133.57 94.1538 129.963 78.3886 135.096 67.0464C140.214 55.699 156.616 53.0594 167.991 58.1773C179.363 63.2855 184.994 75.8447 179.866 87.1968Z" fill="#BED5DC"/>
<path d="M172.576 142.795C169.751 142.795 167.253 140.894 166.503 138.172L164.233 129.934C163.557 127.483 161.388 125.739 158.836 125.594L158.74 125.589C156.286 125.444 154.009 126.843 153.005 129.069L149.705 136.383C148.689 138.636 146.432 140.092 143.955 140.092C143.061 140.092 142.192 139.904 141.37 139.535L131.568 135.128C130.033 134.438 128.859 133.193 128.263 131.621C127.667 130.049 127.72 128.34 128.412 126.809L131.72 119.492C132.725 117.269 132.248 114.62 130.534 112.9L130.474 112.839C129.346 111.701 127.843 111.075 126.243 111.075C125.335 111.075 124.461 111.278 123.644 111.677L115.948 115.433C115.077 115.859 114.146 116.075 113.183 116.075C110.755 116.075 108.584 114.723 107.518 112.548L102.794 102.911C102.055 101.402 101.948 99.6955 102.495 98.1064C103.041 96.5173 104.175 95.2359 105.688 94.4979L114.646 90.1277C116.783 89.0854 118.086 86.8965 117.967 84.5509C117.938 83.9799 117.921 83.4009 117.914 82.8297C117.89 80.5565 116.508 78.4733 114.394 77.5224L105.865 73.6857C102.698 72.261 101.282 68.5303 102.709 65.3692L107.121 55.5974C108.138 53.3456 110.395 51.8907 112.87 51.8907C113.765 51.8907 114.635 52.0782 115.457 52.4481L121.798 55.3008C122.564 55.6458 123.378 55.8207 124.217 55.8207C125.937 55.8207 127.583 55.0722 128.732 53.7675C130.064 52.2555 131.517 50.8234 133.05 49.5111C134.804 48.01 135.545 45.6202 134.94 43.4224L132.596 34.9163C131.676 31.5739 133.651 28.1061 137 27.1858L147.362 24.3394C147.91 24.1888 148.474 24.1123 149.038 24.1123C151.863 24.1123 154.36 26.0128 155.11 28.7338L156.768 34.7447C157.468 37.2825 159.709 39.0288 162.345 39.0905C162.858 39.1023 163.377 39.1238 163.887 39.1542C166.308 39.2966 168.572 37.9002 169.578 35.6768L171.915 30.5134C172.932 28.2646 175.188 26.8114 177.662 26.8114C178.556 26.8114 179.426 26.9986 180.247 27.368L190.042 31.7721C191.577 32.4624 192.751 33.7079 193.347 35.2794C193.943 36.8508 193.891 38.5596 193.198 40.0914L190.866 45.251C189.86 47.4774 190.325 50.1163 192.024 51.8172C192.388 52.1817 192.751 52.5572 193.101 52.9335C194.218 54.135 195.802 54.824 197.446 54.824C198.343 54.8238 199.244 54.6154 200.052 54.2208L205.665 51.4787C206.537 51.0531 207.468 50.8372 208.431 50.8372C210.86 50.8372 213.031 52.1886 214.097 54.3641L218.817 63.9936C220.343 67.107 219.047 70.8802 215.927 72.4045L207.992 76.2825C205.938 77.286 204.634 79.4262 204.671 81.7353C204.703 83.7496 204.592 85.7819 204.34 87.7757C204.008 90.4067 205.391 92.8968 207.781 93.972L214.125 96.8267C215.659 97.5172 216.833 98.7627 217.429 100.334C218.024 101.905 217.971 103.613 217.279 105.145L212.862 114.921C211.845 117.172 209.588 118.626 207.114 118.626H207.113C206.218 118.626 205.347 118.439 204.525 118.068L195.996 114.228C195.21 113.874 194.376 113.695 193.517 113.695C192.1 113.695 190.738 114.197 189.682 115.109C189.25 115.482 188.804 115.852 188.357 116.208C186.516 117.671 185.735 120.096 186.367 122.384L189.018 131.979C189.942 135.322 187.968 138.791 184.619 139.713L174.255 142.566C173.706 142.718 173.141 142.795 172.576 142.795ZM158.393 125.212C158.515 125.212 158.638 125.215 158.762 125.223L158.857 125.228C161.567 125.381 163.87 127.234 164.587 129.837L166.858 138.075C167.564 140.637 169.916 142.428 172.576 142.428C173.108 142.428 173.64 142.355 174.158 142.213L184.521 139.36C187.675 138.491 189.534 135.225 188.664 132.077L186.013 122.482C185.342 120.052 186.172 117.476 188.128 115.921C188.571 115.568 189.013 115.202 189.441 114.832C190.564 113.862 192.012 113.328 193.518 113.328C194.429 113.328 195.314 113.519 196.147 113.894L204.676 117.734C205.451 118.083 206.271 118.26 207.113 118.26C209.444 118.26 211.569 116.89 212.527 114.771L216.944 104.994C217.596 103.552 217.646 101.943 217.085 100.464C216.524 98.9846 215.419 97.8118 213.974 97.1616L207.629 94.3069C205.092 93.1651 203.623 90.522 203.975 87.7303C204.224 85.7537 204.335 83.7387 204.303 81.7416C204.264 79.291 205.649 77.019 207.83 75.9533L215.765 72.0753C218.703 70.64 219.923 67.0872 218.486 64.1553L213.766 54.5258C212.762 52.4772 210.718 51.2045 208.431 51.2045C207.524 51.2045 206.648 51.4078 205.827 51.8087L200.214 54.5507C199.356 54.9696 198.399 55.1912 197.446 55.1912C195.699 55.1912 194.018 54.4594 192.831 53.1835C192.484 52.8105 192.125 52.438 191.764 52.0766C189.958 50.2683 189.462 47.4648 190.531 45.1003L192.863 39.9407C193.515 38.4985 193.564 36.8893 193.003 35.4095C192.442 33.9298 191.337 32.7569 189.891 32.1071L180.096 27.703C179.322 27.3551 178.503 27.1787 177.662 27.1787C175.333 27.1787 173.208 28.5471 172.25 30.6647L169.913 35.828C168.844 38.1893 166.441 39.6737 163.866 39.5207C163.36 39.4905 162.845 39.4693 162.337 39.4575C159.537 39.3921 157.157 37.5373 156.413 34.8423L154.756 28.8316C154.049 26.2692 151.698 24.4798 149.038 24.4798C148.507 24.4798 147.976 24.5518 147.459 24.6938L137.098 27.5402C133.944 28.4067 132.084 31.6721 132.951 34.8195L135.294 43.3256C135.937 45.6594 135.15 48.1969 133.289 49.7901C131.769 51.0912 130.329 52.5111 129.008 54.01C127.789 55.3941 126.043 56.1881 124.217 56.1881C123.326 56.1881 122.461 56.0023 121.647 55.6356L115.306 52.7829C114.532 52.4345 113.712 52.2579 112.87 52.2579C110.539 52.2579 108.414 53.6281 107.456 55.7485L103.044 65.5201C101.701 68.4967 103.034 72.0097 106.016 73.3514L114.545 77.1879C116.789 78.1973 118.256 80.4102 118.282 82.8257C118.288 83.3921 118.306 83.9663 118.334 84.5323C118.461 87.0248 117.077 89.3505 114.808 90.4573L105.849 94.8277C104.425 95.5226 103.357 96.7293 102.843 98.2255C102.328 99.7217 102.428 101.328 103.125 102.749L107.848 112.386C108.852 114.435 110.897 115.708 113.183 115.708C114.09 115.708 114.966 115.504 115.786 115.104L123.482 111.347C124.338 110.929 125.293 110.708 126.243 110.708C127.942 110.708 129.537 111.373 130.735 112.581L130.795 112.64C132.616 114.469 133.123 117.282 132.056 119.643L128.748 126.96C128.096 128.402 128.046 130.011 128.607 131.491C129.168 132.971 130.273 134.144 131.719 134.794L141.522 139.201C142.295 139.548 143.114 139.725 143.955 139.725C146.288 139.725 148.413 138.354 149.37 136.232L152.67 128.918C153.685 126.667 155.932 125.212 158.393 125.212Z" fill="#436E8E"/>
<path d="M90.9542 37.8928C88.8935 39.917 87.6359 39.8658 86.841 39.0598C86.0458 38.2538 86.0142 36.9982 88.0751 34.9738C91.8291 31.2865 95.0829 30.9636 95.0829 30.9636C95.0829 30.9636 94.7628 34.1516 90.9542 37.8928Z" fill="#B2C9C6"/>
<path d="M95.4052 56.0562C94.1116 58.637 92.9053 58.9944 91.8914 58.4885C90.8777 57.9825 90.4407 56.8049 91.7343 54.2239C94.0906 49.5225 97.065 48.1667 97.065 48.1667C97.065 48.1667 97.7959 51.2863 95.4052 56.0562Z" fill="#B2C9C6"/>
<path d="M106.194 103.528L105.654 103.615C105.641 103.532 104.241 95.1719 98.4544 83.8651C93.1149 73.4326 82.8418 58.285 64.2207 45.3685L64.5328 44.9199C83.2568 57.9076 93.5851 73.1438 98.9526 83.6386C104.773 95.017 106.181 103.444 106.194 103.528Z" fill="#B2C9C6"/>
<path d="M84.0275 62.2363L83.5084 62.0632C89.8165 43.2547 78.5908 25.1625 78.4766 24.9819L78.9396 24.6904C79.0548 24.8731 90.4195 43.1778 84.0275 62.2363Z" fill="#B2C9C6"/>
<path d="M73.8667 55.6511C68.476 57.0056 63.7223 55.336 63.668 55.3163L63.8537 54.8026C63.9142 54.8244 70.0041 56.9562 76.1149 54.3159L76.3323 54.8171C75.5059 55.1743 74.6786 55.4472 73.8667 55.6511Z" fill="#B2C9C6"/>
<path d="M63.1214 42.5044C66.567 44.3263 67.1618 45.6785 66.631 46.678C66.1005 47.6772 64.6452 47.9453 61.1994 46.1234C54.9227 42.8042 52.8496 39.3903 52.8496 39.3903C52.8496 39.3903 56.753 39.1367 63.1214 42.5044Z" fill="#B2C9C6"/>
<path d="M64.6598 53.2464C68.4957 53.947 69.4713 55.0571 69.2674 56.1698C69.0634 57.2825 67.757 57.9758 63.9211 57.2754C56.9335 55.9992 53.9258 53.368 53.9258 53.368C53.9258 53.368 57.5704 51.9517 64.6598 53.2464Z" fill="#B2C9C6"/>
<path d="M77.1694 45.8511C78.4962 48.4152 78.0748 49.5984 77.0678 50.1174C76.0609 50.6366 74.8498 50.2945 73.5228 47.7307C71.1054 43.0604 71.7607 39.8635 71.7607 39.8635C71.7607 39.8635 74.7167 41.1128 77.1694 45.8511Z" fill="#B2C9C6"/>
<path d="M79.5156 22.2639C81.3227 25.7123 81.0461 27.1628 80.0417 27.6871C79.0375 28.2113 77.6858 27.6104 75.8784 24.162C72.5862 17.8805 72.8139 13.8955 72.8139 13.8955C72.8139 13.8955 76.1753 15.8907 79.5156 22.2639Z" fill="#B2C9C6"/>
<path d="M124.663 139.289C124.663 139.289 68.9493 47.6622 44.6023 63.6823C20.2555 79.7025 95.5678 116.826 110.939 144.012L124.663 139.289Z" fill="#B2C9C6"/>
<path d="M91.6469 129.68C91.6469 129.68 27.5228 61.8045 5.51977 81.1269C-16.4833 100.449 60.8854 116.416 78.7823 136.808L91.6469 129.68Z" fill="#9BBCB6"/>
<path d="M84.4868 133.731C72.3837 119.423 54.4062 108.151 41.4564 101.215C27.4169 93.695 16.1049 89.5123 15.9922 89.4706L16.2512 88.7688C16.3642 88.8101 27.7258 93.0113 41.8109 100.556C54.8184 107.523 72.8801 118.85 85.0596 133.248L84.4868 133.731Z" fill="#74A1BD"/>
<path d="M24.4496 149.297C38.8816 152.096 36.9542 173.848 53.2404 169.476C69.5269 165.096 68.1471 164.079 76.1721 171.009C76.1721 171.009 79.3833 177.803 85.9186 178.806C111.704 182.762 146.026 144.109 118.782 123.781C116.815 122.314 113.985 121.792 110.856 121.37C93.881 119.093 88.7737 126.954 75.024 107.339C61.2701 87.7183 43.7846 116.633 32.417 115.868C21.0496 115.104 10.9786 111.919 2.39193 124.103C-6.19555 136.297 10.0168 146.507 24.4496 149.297Z" fill="#CFD3A3"/>
<path d="M111.182 151.538L111.705 150.726C111.346 150.496 74.9669 127.713 0.427993 127.554L0.425781 128.519C74.6849 128.678 110.825 151.309 111.182 151.538Z" fill="#C4C695"/>
<path d="M64.2174 123.809C73.8566 114.775 75.4369 107.732 75.4993 107.437L74.5533 107.237C74.5384 107.306 72.948 114.302 63.5547 123.105L64.2174 123.809Z" fill="#C4C695"/>
<path d="M62.7358 134.253C65.393 129.339 64.9827 122.348 61.5495 114.034C58.9788 107.809 55.5808 102.956 55.5467 102.908L54.7559 103.462C54.8889 103.651 67.9946 122.496 61.8843 133.796L62.7358 134.253Z" fill="#C4C695"/>
<path d="M43.0946 132.991C44.2433 131.989 44.862 131.341 44.89 131.311L44.1843 130.652C44.0554 130.789 31.0125 144.426 11.3306 144.252L11.3223 145.216C27.1817 145.357 38.8151 136.722 43.0946 132.991Z" fill="#C4C695"/>
<path d="M33.9078 155.505C38.2899 150.412 39.4645 145.391 39.678 142.076C39.9105 138.467 39.1052 136.088 39.0711 135.988L38.1565 136.303C38.1878 136.394 41.1976 145.552 33.1738 154.876L33.9078 155.505Z" fill="#C4C695"/>
<path d="M59.3717 89.7741L173.71 94.251C177.846 94.4131 181.393 97.2482 182.454 101.241L204.095 182.638L71.9737 184.56L49.8902 101.6C48.2551 95.4783 53.0274 89.5257 59.3717 89.7741Z" fill="#6F4975"/>
<path d="M248.71 188.293H75.7316C74.4696 188.293 72.9453 187.949 72.669 187.133C72.4558 186.505 72.1745 185.191 71.9676 184.559C71.5774 183.369 72.9344 182.28 74.7694 182.287L154.912 182.063L249.526 182.945C251.384 182.952 252.711 184.117 252.177 185.272L251.377 187.005C251.023 187.769 249.939 188.293 248.71 188.293Z" fill="#6F4975"/>
<path d="M250.34 188.293H156C155.311 188.293 154.48 187.949 154.329 187.134C154.213 186.505 154.06 185.191 153.947 184.56C153.734 183.369 153.911 182.057 154.912 182.064L250.785 182.945C251.799 182.953 252.522 184.117 252.231 185.273L251.795 187.005C251.602 187.77 251.01 188.293 250.34 188.293Z" fill="#56335B"/>
<path d="M200.489 181.927L171.716 182.014L139.373 182.112L136.542 182.121L104.34 182.218L94.4343 182.247L77.9782 182.297L76.4481 176.084L57.9091 100.8C57.3577 98.5617 59.1039 96.4163 61.4122 96.4937L100.976 97.8259L108.878 98.0922H108.879L111.094 98.1679L121.578 98.5202L122.881 98.5653L128.388 98.7505L161.356 99.8619L170.442 100.167C171.952 100.218 173.381 100.646 174.626 101.372C174.796 101.47 174.963 101.574 175.125 101.683C176.814 102.822 178.104 104.532 178.697 106.584L184.256 125.807L200.489 181.927Z" fill="#BED5DC"/>
<path d="M121 95.238C121.292 96.1196 120.409 96.4916 119.986 96.4916C119.563 96.4916 118.725 95.9303 118.725 95.238C118.725 94.2089 119.563 93.9841 119.986 93.9841C120.409 93.9841 120.781 94.5808 121 95.238Z" fill="#2F1A31"/>
<path d="M206.027 23.093C206.027 11.9129 211.356 0 228.56 0C239.764 0 249.356 9.53883 250.484 20.6622C251.854 34.1839 243.632 42.3882 227.437 44.0591C216.292 45.209 206.027 37.0707 206.027 23.093Z" fill="#E28569"/>
<path d="M225.767 41.4741C221.593 41.4741 217.691 40.0042 214.623 37.2429C210.837 33.8355 208.752 28.7569 208.752 22.9428C208.752 19.0871 209.485 13.5694 212.979 9.18004C216.403 4.87762 221.633 2.69629 228.523 2.69629C238.125 2.69629 246.761 10.8241 247.773 20.8146C248.969 32.6109 241.815 39.9135 227.631 41.3774C227.005 41.4419 226.383 41.4741 225.767 41.4741ZM228.523 3.91163C222.945 3.91163 209.97 5.76618 209.97 22.9428C209.97 28.4082 211.912 33.1664 215.439 36.3403C218.7 39.2754 222.985 40.6346 227.505 40.1684C234.232 39.4743 239.289 37.4584 242.536 34.1765C245.767 30.9117 247.121 26.4572 246.561 20.937C245.61 11.5492 237.518 3.91163 228.523 3.91163Z" fill="#F7B686"/>
<path d="M228.432 34.6517L228.218 33.2616C228.141 32.756 227.691 32.3983 227.179 32.4201C225.973 32.4715 224.765 32.3093 223.799 31.9865C223.33 31.8296 223.052 31.3492 223.142 30.8641L223.204 30.5289C223.313 29.9421 223.91 29.5852 224.481 29.7618C225.583 30.1025 226.889 30.2539 228.212 30.051C230.468 29.7058 231.263 28.0363 230.977 26.1778C230.702 24.3842 229.816 23.5644 227.315 22.9462C223.875 22.1378 220.439 21.127 220.003 18.29C219.623 15.8176 220.764 13.0866 224.488 12.3969C224.933 12.3146 225.144 11.7814 225.075 11.3355L224.841 9.81294C224.758 9.27024 225.131 8.76272 225.675 8.67961C226.219 8.59633 226.728 8.96885 226.811 9.51154L227.006 10.781C227.082 11.2767 227.517 11.6419 228.019 11.6236C229.029 11.5867 229.87 11.7086 230.572 11.9009C231.074 12.0387 231.381 12.5463 231.277 13.0562L231.211 13.3784C231.097 13.9401 230.53 14.2802 229.975 14.1322C229.195 13.9244 228.136 13.7763 226.815 13.9785C224.369 14.353 223.678 15.9939 223.879 17.2982C224.14 18.9938 225.877 18.8941 228.821 19.645C232.303 20.5136 234.666 22.1267 235.38 24.9752C236.141 28.0135 234.657 30.4447 230.773 31.6629C230.341 31.7984 230.115 32.2786 230.184 32.7249L230.433 34.3456C230.517 34.8883 230.143 35.3959 229.599 35.4791L229.568 35.484C229.024 35.5669 228.515 35.1944 228.432 34.6517Z" fill="#F7B686"/>
<path d="M234.581 60.0306C237.14 53.5036 242.977 47.7635 253.021 51.6847C259.561 54.2384 262.978 61.9936 261.09 68.7442C258.795 76.9505 252.118 79.866 242.28 77.1504C235.511 75.2816 231.381 68.1907 234.581 60.0306Z" fill="#E28569"/>
<path d="M248.718 76.4822C246.984 76.4822 245.075 76.1997 243.006 75.6288C240.049 74.8127 237.688 72.9026 236.358 70.2505C234.928 67.3982 234.873 63.9582 236.204 60.564C237.086 58.313 238.777 55.2589 241.821 53.4925C244.805 51.7613 248.358 51.68 252.38 53.2504C257.986 55.4391 261.167 62.1522 259.471 68.2155C257.95 73.6555 254.208 76.4822 248.718 76.4822ZM236.915 60.8414C235.664 64.0321 235.709 67.2527 237.041 69.9093C238.273 72.366 240.463 74.1364 243.209 74.8943C247.295 76.0225 250.709 75.9983 253.356 74.8223C255.989 73.6525 257.799 71.3609 258.736 68.0105C260.329 62.3132 257.353 56.0102 252.102 53.9599C248.845 52.6884 240.846 50.8135 236.915 60.8414H236.915Z" fill="#F7B686"/>
<path d="M245.015 71.8853L245.209 71.0248C245.279 70.7119 245.099 70.4009 244.795 70.2969C244.078 70.0518 243.411 69.682 242.921 69.2732C242.683 69.0748 242.63 68.731 242.794 68.4681L242.907 68.2866C243.105 67.9688 243.535 67.8964 243.828 68.1296C244.393 68.5797 245.121 68.9658 245.94 69.1491C247.336 69.4615 248.182 68.6681 248.441 67.518C248.69 66.408 248.361 65.728 247.043 64.7968C245.219 63.5408 243.445 62.1674 243.839 60.4121C244.184 58.8818 245.475 57.5477 247.807 57.9939C248.085 58.0472 248.331 57.7839 248.393 57.5081L248.605 56.5661C248.68 56.2302 249.014 56.019 249.351 56.0944C249.687 56.1698 249.899 56.503 249.823 56.8389L249.647 57.6243C249.578 57.9311 249.748 58.2432 250.045 58.3471C250.643 58.5558 251.106 58.8185 251.472 59.0906C251.734 59.2859 251.796 59.6518 251.619 59.9259L251.507 60.099C251.311 60.401 250.903 60.4703 250.613 60.2574C250.205 59.9583 249.621 59.6306 248.803 59.4472C247.29 59.1084 246.511 59.909 246.329 60.716C246.093 61.7653 247.13 62.1031 248.677 63.2126C250.511 64.5136 251.522 65.9939 251.286 67.8193C251.035 69.7667 249.612 70.8475 247.066 70.6736C246.783 70.6542 246.541 70.8833 246.479 71.1593L246.254 72.1622C246.178 72.4981 245.844 72.7092 245.507 72.6339L245.488 72.6294C245.151 72.5546 244.94 72.221 245.015 71.8853Z" fill="#F7B686"/>
<path d="M237.367 202.134V199.24L279.798 198.978L279.737 202.134H237.367Z" fill="#CE745F"/>
<path d="M239.03 199.159C242.891 195.953 251.699 193.133 266.852 195.059C276.721 196.314 281.876 200.123 279.027 203.439C275.565 207.469 265.49 208.901 250.647 207.567C240.434 206.65 234.203 203.167 239.03 199.159Z" fill="#CE745F"/>
<path d="M239.03 196.371C242.891 193.166 251.699 190.346 266.852 192.272C276.721 193.526 281.876 197.336 279.027 200.651C275.565 204.682 265.49 206.114 250.647 204.78C240.434 203.863 234.203 200.379 239.03 196.371Z" fill="#E28569"/>
<path d="M260.361 204.593C257.783 204.594 254.947 204.455 251.871 204.179C245.471 203.604 241.067 201.873 240.377 199.663C240.148 198.93 240.211 197.777 241.81 196.449C243.882 194.728 250.36 190.937 265.722 192.89C271.7 193.65 275.966 195.554 276.856 197.861C277.21 198.776 277.012 199.708 276.285 200.554C274.769 202.318 271.862 203.522 267.644 204.132C265.516 204.44 263.082 204.593 260.361 204.593ZM257.733 193.006C255.041 193.006 252.56 193.219 250.31 193.644C245.93 194.471 243.499 195.9 242.231 196.953C241.171 197.833 240.758 198.679 241.005 199.467C241.605 201.39 245.893 202.983 251.93 203.525C264.463 204.652 272.936 203.445 275.786 200.127C276.354 199.466 276.508 198.782 276.243 198.096C275.452 196.047 271.29 194.258 265.64 193.54C262.838 193.184 260.197 193.006 257.733 193.006Z" fill="#F7B686"/>
<path d="M254.775 202.194L255.067 201.772C255.173 201.618 254.901 201.466 254.443 201.414C253.362 201.294 252.354 201.112 251.615 200.911C251.257 200.814 251.177 200.645 251.424 200.516L251.594 200.427C251.893 200.271 252.542 200.235 252.984 200.35C253.837 200.571 254.935 200.761 256.171 200.851C258.277 201.004 259.554 200.615 259.944 200.05C260.32 199.505 259.824 199.17 257.834 198.713C255.083 198.096 252.406 197.422 253.001 196.559C253.52 195.808 255.469 195.152 258.987 195.371C259.407 195.398 259.777 195.269 259.871 195.133L260.191 194.67C260.305 194.505 260.809 194.401 261.316 194.438C261.824 194.476 262.143 194.639 262.029 194.804L261.763 195.19C261.659 195.341 261.916 195.494 262.365 195.545C263.267 195.648 263.965 195.777 264.517 195.91C264.912 196.006 265.007 196.186 264.739 196.32L264.57 196.405C264.275 196.554 263.659 196.588 263.221 196.483C262.606 196.336 261.724 196.175 260.49 196.085C258.207 195.919 257.031 196.312 256.758 196.709C256.402 197.224 257.966 197.39 260.3 197.935C263.067 198.574 264.592 199.301 264.237 200.198C263.858 201.154 261.711 201.685 257.869 201.599C257.442 201.59 257.078 201.703 256.984 201.838L256.644 202.331C256.53 202.496 256.026 202.6 255.518 202.562L255.488 202.56C254.981 202.523 254.661 202.359 254.775 202.194Z" fill="#F7B686"/>
<path d="M176.566 200V198.102L204.398 197.93L204.358 200H176.566Z" fill="#CE745F"/>
<path d="M177.657 198.048C180.19 195.945 185.967 194.096 195.907 195.359C202.38 196.182 205.761 198.68 203.893 200.855C201.622 203.499 195.013 204.438 185.277 203.564C178.578 202.962 174.491 200.677 177.657 198.048Z" fill="#CE745F"/>
<path d="M177.657 196.22C180.19 194.117 185.967 192.267 195.907 193.531C202.38 194.354 205.761 196.852 203.893 199.027C201.622 201.671 195.013 202.61 185.277 201.735C178.578 201.133 174.491 198.849 177.657 196.22Z" fill="#E28569"/>
<path d="M191.588 201.608C189.913 201.608 188.073 201.52 186.08 201.341C181.882 200.964 178.993 199.829 178.541 198.379C178.39 197.898 178.432 197.142 179.48 196.271C180.84 195.142 185.089 192.656 195.165 193.936C199.086 194.434 201.884 195.684 202.468 197.197C202.7 197.797 202.57 198.408 202.093 198.964C200.598 200.704 196.942 201.608 191.588 201.608ZM179.757 196.601C179.061 197.179 178.791 197.734 178.952 198.251C179.346 199.512 182.159 200.557 186.118 200.912C194.34 201.651 199.897 200.86 201.766 198.683C202.139 198.25 202.24 197.801 202.066 197.351C201.547 196.007 198.817 194.834 195.111 194.363C191.265 193.874 187.882 193.897 185.056 194.431C182.183 194.973 180.588 195.911 179.757 196.601Z" fill="#F7B686"/>
<path d="M187.981 200.039L188.173 199.762C188.243 199.661 188.064 199.561 187.763 199.527C187.054 199.448 186.394 199.329 185.909 199.197C185.673 199.133 185.621 199.023 185.783 198.938L185.895 198.879C186.091 198.777 186.516 198.754 186.806 198.829C187.366 198.974 188.086 199.098 188.897 199.157C190.278 199.258 191.116 199.002 191.372 198.632C191.619 198.274 191.293 198.055 189.988 197.755C188.183 197.35 186.427 196.908 186.818 196.342C187.158 195.85 188.436 195.42 190.744 195.563C191.019 195.58 191.262 195.496 191.324 195.407L191.533 195.103C191.608 194.995 191.939 194.927 192.272 194.951C192.605 194.976 192.815 195.083 192.739 195.191L192.565 195.444C192.497 195.543 192.665 195.644 192.959 195.677C193.551 195.745 194.009 195.829 194.371 195.917C194.631 195.98 194.692 196.098 194.517 196.186L194.406 196.242C194.213 196.339 193.808 196.362 193.521 196.293C193.118 196.197 192.539 196.091 191.73 196.032C190.232 195.923 189.462 196.181 189.282 196.441C189.048 196.779 190.075 196.888 191.605 197.245C193.42 197.664 194.421 198.141 194.188 198.729C193.939 199.356 192.531 199.705 190.011 199.649C189.731 199.643 189.492 199.716 189.43 199.805L189.207 200.128C189.132 200.237 188.802 200.305 188.468 200.28L188.449 200.279C188.116 200.255 187.907 200.147 187.981 200.039Z" fill="#F7B686"/>
<path d="M224.787 97.5011C224.435 93.5868 225.925 89.2492 231.948 88.71C235.871 88.3589 239.529 91.3979 240.274 95.2569C241.179 99.9477 238.559 103.078 232.942 104.17C229.076 104.922 225.227 102.395 224.787 97.5011Z" fill="#E28569"/>
<path d="M231.727 103.342C230.463 103.342 229.256 102.946 228.241 102.185C226.808 101.11 225.918 99.3976 225.735 97.3621C225.614 96.0124 225.697 94.0576 226.782 92.4115C227.846 90.7981 229.608 89.8703 232.02 89.6543C235.381 89.3547 238.661 91.9283 239.33 95.3943C240.119 99.4868 237.845 102.268 232.925 103.225C232.523 103.303 232.122 103.342 231.727 103.342ZM226.162 97.3241C226.334 99.2376 227.164 100.843 228.498 101.843C229.732 102.769 231.275 103.11 232.843 102.805C237.56 101.888 239.658 99.3531 238.909 95.4754C238.281 92.2183 235.207 89.7966 232.058 90.0802C230.105 90.2546 225.621 91.3107 226.162 97.3241Z" fill="#F7B686"/>
<path d="M232.993 100.846L232.874 100.366C232.831 100.191 232.663 100.08 232.484 100.104C232.063 100.159 231.635 100.141 231.287 100.058C231.118 100.018 231.006 99.8581 231.022 99.6854L231.033 99.5661C231.053 99.3572 231.25 99.2137 231.456 99.2574C231.852 99.3423 232.315 99.3544 232.771 99.242C233.55 99.0505 233.776 98.4409 233.617 97.7992C233.465 97.1802 233.129 96.9206 232.234 96.7827C231.004 96.6075 229.769 96.3612 229.527 95.3818C229.316 94.5279 229.63 93.5359 230.912 93.1777C231.065 93.1351 231.122 92.9418 231.084 92.7878L230.954 92.2623C230.908 92.0747 231.023 91.8856 231.21 91.8394C231.398 91.7931 231.588 91.9075 231.634 92.095L231.743 92.5333C231.785 92.7044 231.949 92.8187 232.124 92.7965C232.476 92.7522 232.774 92.7684 233.026 92.8137C233.207 92.8462 233.33 93.0142 233.309 93.196L233.297 93.3108C233.274 93.5111 233.086 93.6479 232.888 93.6133C232.608 93.5649 232.233 93.5466 231.776 93.6587C230.932 93.8664 230.742 94.4626 230.853 94.913C230.998 95.4983 231.603 95.409 232.657 95.5797C233.903 95.7749 234.782 96.2656 235.121 97.2403C235.483 98.2802 235.04 99.1779 233.719 99.7261C233.572 99.787 233.508 99.9624 233.546 100.116L233.684 100.676C233.73 100.863 233.616 101.053 233.428 101.099L233.417 101.102C233.229 101.147 233.039 101.033 232.993 100.846Z" fill="#F7B686"/>
<path d="M234.861 134.927C219.143 126.889 197.278 113.789 182.376 97.0222C178.923 93.1372 177.661 91.5855 175.976 88.9346C174.62 86.8011 169.498 87.7811 165.998 91.0501C162.713 94.1173 160.803 100.098 161.374 101.373C162.345 103.541 164.712 106.354 168.49 110.769C181.618 126.107 202.726 140.483 229.484 153.071L234.861 134.927Z" fill="#F7B686"/>
<path d="M176.567 146.325C176.567 146.325 176.5 148.057 176.188 151.476C175.899 154.896 175.343 160.003 174.386 166.753C174.32 167.219 174.253 167.708 174.186 168.218C174.052 169.04 173.941 169.906 173.808 170.794C173.808 170.794 173.786 170.816 173.786 170.839L173.763 170.994C173.274 174.325 172.673 178.011 171.939 182.03L104.518 182.274L105.361 174.112L106.164 168.441L106.52 165.532L106.631 164.666L108.567 148.523L144.681 143.993C144.681 143.993 144.592 146.147 144.191 150.366L176.567 146.325Z" fill="#436E8E"/>
<path d="M103.796 165.827C103.675 168.537 119.989 170.76 140.304 171.55C160.619 172.34 177.014 170.678 177.135 167.968C177.256 165.259 161.057 162.528 140.742 161.738C120.427 160.948 103.917 163.118 103.796 165.827Z" fill="#2F1A31"/>
<path d="M114.151 89.6017C114.151 89.6017 118.733 75.6762 145.19 77.386C183.343 79.8521 177.35 114.575 177.138 167.968C177.138 167.968 139.944 160.033 103.826 165.16C103.826 165.16 104.344 110.683 114.151 89.6017Z" fill="#2A3D66"/>
<path d="M104.531 86.8843L121.133 97.6322C121.133 97.6322 158.713 103.711 168.869 102.764C179.025 101.817 182.298 94.653 182.298 94.653C182.298 94.653 172.382 82.8622 154.414 78.6402C152.725 78.2413 150.969 77.9122 149.141 77.6642C146.072 77.2499 142.982 77.0746 139.941 77.2025C116.722 78.1785 104.531 86.8843 104.531 86.8843Z" fill="#2A3D66"/>
<path d="M141.78 73.8867L144.229 67.597L144.941 65.7658L149.133 54.9995L148.812 65.9789L148.618 72.5688L148.557 74.6549C148.515 76.0708 149.357 76.428 150.32 77.7285C150.71 78.2556 153.219 81.4608 150.035 82.6058C146.068 84.0327 139.056 80.9596 136.559 77.403C136.581 77.4002 140.988 75.9193 141.78 73.8867Z" fill="#F7B686"/>
<path d="M173.791 169.932C173.791 169.932 152.281 161.944 106.17 167.607L105.359 174.112L171.876 181.138L173.791 169.932Z" fill="#436E8E"/>
<path d="M159.002 166.858C159.002 166.858 149.297 165.937 144.98 173.627C144.98 173.627 147.638 165.835 143.539 165.672C141.844 165.604 145.307 164.702 145.307 164.702L159.002 166.858Z" fill="#2F1A31"/>
<path d="M104.129 87.271C102.27 89.5484 104.948 94.8819 110.111 99.1834C115.275 103.485 120.967 105.126 122.826 102.848C124.685 100.571 122.007 95.2374 116.844 90.9358C111.681 86.6343 105.988 84.9934 104.129 87.271Z" fill="#2F1A31"/>
<path d="M121.473 103.014C121.278 103.291 121.093 103.561 120.912 103.825C119.159 106.395 117.981 108.555 115.449 113.545C111.38 121.56 107.924 130.353 104.995 139.312C100.164 154.09 96.7673 169.318 94.4354 182.247L77.9792 182.297L76.4492 176.085C81.3723 145.356 88.6221 121.177 98.5945 102.293C99.4685 100.641 100.256 99.1533 100.977 97.8261C102.278 95.4273 103.361 93.5502 104.332 92.1456C104.804 91.4659 105.249 90.8976 105.68 90.4355C106.103 89.9807 107.342 89.7109 108.92 89.7233C110.362 89.7342 112.088 89.9807 113.733 90.5344C114.82 90.8994 115.872 91.3995 116.786 92.054C118.79 93.4887 120.366 95.5964 121.248 97.65C121.372 97.9414 121.484 98.2326 121.579 98.5204C122.179 100.31 122.205 101.973 121.473 103.014Z" fill="#F7B686"/>
<path d="M158.216 51.4832C158.216 51.4832 158.725 54.196 157.793 57.4873C156.861 60.7788 154.035 52.3299 154.035 52.3299L158.216 51.4832Z" fill="#56335B"/>
<path d="M158.13 58.4788C157.735 51.9612 153.024 46.9424 147.607 47.2695C142.191 47.5965 138.12 53.1451 138.515 59.6628C138.91 66.1806 143.621 71.1991 149.038 70.8721C154.454 70.5452 158.525 64.9963 158.13 58.4788Z" fill="#F7B686"/>
<path d="M138.507 56.2695L143.286 56.1109C144.336 56.0759 145.33 55.5836 145.957 54.7414C147.035 53.2913 148.26 52.5935 152.674 53.0697C158.263 53.6723 162.199 50.5978 163.01 47.7142C163.838 44.7708 161.113 42.5455 158.198 43.772C155.283 44.999 156.737 41.5915 154.056 41.0309C149.047 39.9837 147.826 43.8081 143.693 43.3913C138.275 42.8448 128.259 46.2804 132.201 56.1421L138.507 56.2695Z" fill="#2F1A31"/>
<path d="M148.874 58.6134C148.928 58.5847 148.967 58.5325 148.977 58.4684C148.994 58.3599 148.92 58.2587 148.811 58.242C148.747 58.232 147.285 57.8641 146.429 59.3821C146.375 59.4778 146.405 59.5988 146.5 59.6544C146.595 59.7101 146.697 59.6645 146.773 59.5838C147.525 58.7801 148.697 58.6271 148.75 58.6347C148.794 58.6415 148.837 58.6329 148.874 58.6134Z" fill="#060633"/>
<path d="M147.833 61.0964C147.926 61.5615 148.275 61.8842 148.613 61.8171C148.952 61.7503 149.151 61.3186 149.058 60.8535C148.966 60.3882 148.616 60.0656 148.278 60.1326C147.94 60.1996 147.741 60.631 147.833 61.0964Z" fill="#060633"/>
<path d="M156.264 58.5393C156.31 58.5346 156.353 58.5027 156.378 58.4482C156.42 58.3557 156.394 58.2335 156.32 58.1747C156.276 58.14 155.316 57.2186 154.278 58.2624C154.213 58.328 154.201 58.4504 154.255 58.5393C154.308 58.6283 154.395 58.6275 154.472 58.5841C155.239 58.151 156.131 58.4808 156.168 58.5094C156.198 58.5332 156.232 58.5426 156.264 58.5393Z" fill="#060633"/>
<path d="M154.313 60.4443C154.221 60.9095 154.421 61.3407 154.76 61.4074C155.098 61.4738 155.447 61.1507 155.539 60.6854C155.631 60.22 155.431 59.789 155.092 59.7223C154.754 59.6559 154.405 59.9792 154.313 60.4443Z" fill="#060633"/>
<path d="M132.201 56.1422C132.201 56.1422 134.98 63.4271 139.59 64.2706C139.59 64.2706 136.212 58.6303 144.361 55.9084C144.361 55.9084 137.171 54.2573 132.201 56.1422Z" fill="#56335B"/>
<path d="M138.481 60.495C139.43 61.1955 140.708 61.0773 141.336 60.2307C141.963 59.3843 141.702 58.13 140.753 57.4294C139.804 56.729 138.525 56.8473 137.898 57.6937C137.271 58.5402 137.532 59.7945 138.481 60.495Z" fill="#F7B686"/>
<path d="M144.364 55.9082C144.364 55.9082 143.313 61.7846 144.442 62.9886C145.571 64.1923 153.511 65.2329 157.333 64.0588C157.128 67.8656 154.206 71.0343 150.403 71.4009C149.145 71.5223 147.859 71.4335 146.597 71.1209C144.023 70.4839 141.567 69.2312 140.662 66.7444C140.387 65.9878 141.656 61.5401 141.656 61.5401C141.656 61.5401 142.199 58.9158 140.752 57.429C140.752 57.429 142.648 55.955 144.364 55.9082Z" fill="#56335B"/>
<path d="M155.218 66.0569C155.218 66.0569 152.105 66.668 148.789 66.1115C148.789 66.1115 149.062 69.2306 152.483 68.8527C154.472 68.633 155.218 66.0569 155.218 66.0569Z" fill="white"/>
<path d="M157.714 43.2689C156.165 43.2081 156.119 41.8863 156.119 41.8729L156.387 41.8674L156.253 41.8701L156.387 41.8669C156.388 41.9113 156.432 42.9509 157.725 43.0015L157.714 43.2689Z" fill="#2F1A31"/>
<path d="M154.374 51.6136L154.346 51.4828C154.407 51.4696 160.494 50.1236 160.956 47.0777C161.087 46.2164 160.983 45.6312 160.636 45.2888C160.081 44.7396 158.988 44.9148 158.023 45.0691C157.874 45.0927 157.729 45.1161 157.59 45.1361L157.571 45.0036C157.71 44.9838 157.854 44.9606 158.002 44.9369C158.998 44.7773 160.128 44.5966 160.731 45.1934C161.11 45.5682 161.227 46.191 161.089 47.0976C160.891 48.3997 159.664 49.594 157.541 50.5515C155.946 51.2705 154.389 51.6102 154.374 51.6136Z" fill="white"/>
<path d="M143.914 44.6081C143.112 44.6081 142.238 44.526 141.291 44.3298L141.318 44.1989C144.331 44.8225 146.57 44.2716 147.919 43.6994C149.38 43.0791 150.139 42.3014 150.147 42.2937L150.244 42.3861C150.218 42.4126 148.05 44.6081 143.914 44.6081Z" fill="white"/>
<path d="M90.8598 141.567C90.688 141.567 90.5162 141.547 90.3458 141.507C88.6971 141.115 87.8048 138.913 88.3567 136.598C88.9086 134.283 90.6989 132.719 92.3478 133.109C93.9965 133.5 94.889 135.702 94.3372 138.018C93.8421 140.094 92.3513 141.567 90.8598 141.567ZM89.1466 136.786C88.706 138.634 89.3412 140.435 90.5338 140.718C91.7254 141.001 93.1061 139.679 93.5467 137.83C93.9875 135.981 93.3523 134.181 92.1595 133.897C90.9677 133.615 89.5875 134.937 89.1466 136.786Z" fill="#E08B65"/>
<path d="M255.989 141.57C256.098 141.561 256.5 141.225 257.501 141.377C261.307 140.023 260.517 137.478 251.357 135.57C248.104 134.892 242.344 132.943 238.109 133.225C235.179 133.42 232.981 133.956 232.981 133.956C231.374 133.765 221.226 148.944 221.481 149.167C230.884 155.955 246.713 161.724 249.322 160.772C251.947 159.813 252.541 160.845 254.588 159.813C256.765 158.714 258.085 157.5 259.622 156.477C261.158 155.455 262.429 151.597 262.045 149.801C261.66 148.005 255.565 143.203 255.989 141.57Z" fill="#F7B686"/>
<path d="M225.049 149.204V146.136L270.034 145.858L269.969 149.204H225.049Z" fill="#CE745F"/>
<path d="M226.812 146.05C230.905 142.651 240.243 139.662 256.309 141.704C266.772 143.033 272.237 147.072 269.217 150.588C265.546 154.861 254.865 156.379 239.129 154.965C228.3 153.992 221.694 150.299 226.812 146.05Z" fill="#CE745F"/>
<path d="M226.812 143.095C230.905 139.696 240.243 136.707 256.309 138.749C266.772 140.078 272.237 144.117 269.217 147.632C265.546 151.906 254.865 153.424 239.129 152.01C228.3 151.036 221.694 147.344 226.812 143.095Z" fill="#E28569"/>
<path d="M249.427 151.812C246.693 151.812 243.687 151.666 240.425 151.372C233.641 150.763 228.972 148.928 228.24 146.585C227.8 145.176 228.823 143.954 229.759 143.177C231.956 141.353 238.824 137.333 255.111 139.404C261.448 140.209 265.971 142.228 266.915 144.674C267.29 145.645 267.08 146.632 266.309 147.53C264.703 149.4 261.621 150.676 257.148 151.323C254.893 151.649 252.311 151.812 249.427 151.812ZM230.205 143.712C229.082 144.645 228.644 145.542 228.905 146.378C229.542 148.416 234.089 150.105 240.488 150.68C253.776 151.874 262.759 150.595 265.78 147.077C266.383 146.376 266.546 145.651 266.265 144.924C265.426 142.751 261.014 140.855 255.023 140.093C248.807 139.304 243.339 139.34 238.771 140.203C234.127 141.08 231.55 142.595 230.205 143.712Z" fill="#F7B686"/>
<path d="M225.049 145.823V142.755L270.034 142.477L269.969 145.823H225.049Z" fill="#CE745F"/>
<path d="M226.812 142.669C230.905 139.27 240.243 136.281 256.309 138.323C266.772 139.652 272.237 143.691 269.217 147.206C265.546 151.479 254.865 152.998 239.129 151.584C228.3 150.611 221.694 146.918 226.812 142.669Z" fill="#CE745F"/>
<path d="M226.812 139.714C230.905 136.315 240.243 133.326 256.309 135.368C266.772 136.697 272.237 140.736 269.217 144.251C265.546 148.524 254.865 150.043 239.129 148.629C228.3 147.655 221.694 143.963 226.812 139.714Z" fill="#E28569"/>
<path d="M249.427 148.431C246.693 148.431 243.687 148.285 240.426 147.992C233.641 147.382 228.972 145.547 228.24 143.204C227.8 141.795 228.824 140.573 229.759 139.797C231.956 137.972 238.824 133.952 255.111 136.023C261.448 136.828 265.971 138.847 266.915 141.293C267.29 142.264 267.08 143.251 266.309 144.149C264.703 146.019 261.621 147.295 257.148 147.942C254.893 148.268 252.312 148.431 249.427 148.431ZM246.641 136.146C243.787 136.146 241.156 136.372 238.771 136.822C234.127 137.699 231.55 139.215 230.205 140.331C229.082 141.264 228.644 142.161 228.905 142.997C229.542 145.035 234.089 146.724 240.488 147.299C253.777 148.493 262.759 147.214 265.78 143.696C266.383 142.995 266.546 142.27 266.265 141.543C265.427 139.37 261.014 137.474 255.023 136.712C252.053 136.335 249.253 136.146 246.641 136.146Z" fill="#F7B686"/>
<path d="M225.049 141.141V138.072L270.034 137.794L269.969 141.141H225.049Z" fill="#CE745F"/>
<path d="M226.812 137.986C230.905 134.587 240.243 131.598 256.309 133.64C266.772 134.97 272.237 139.008 269.217 142.523C265.546 146.797 254.865 148.315 239.129 146.901C228.3 145.928 221.694 142.235 226.812 137.986Z" fill="#CE745F"/>
<path d="M226.812 135.03C230.905 131.632 240.243 128.642 256.309 130.685C266.772 132.014 272.237 136.052 269.217 139.568C265.546 143.841 254.865 145.36 239.129 143.946C228.3 142.972 221.694 139.28 226.812 135.03Z" fill="#E28569"/>
<path d="M249.427 143.748C246.693 143.748 243.687 143.602 240.426 143.308C233.641 142.699 228.972 140.864 228.24 138.521C227.8 137.113 228.824 135.891 229.759 135.114C231.956 133.289 238.824 129.269 255.111 131.34C261.448 132.145 265.971 134.165 266.915 136.61C267.29 137.581 267.08 138.568 266.309 139.466C264.703 141.336 261.621 142.612 257.148 143.259C254.893 143.585 252.311 143.748 249.427 143.748ZM246.641 131.463C243.787 131.463 241.156 131.689 238.771 132.139C234.127 133.016 231.55 134.531 230.205 135.648C229.082 136.581 228.644 137.478 228.905 138.313C229.542 140.352 234.089 142.041 240.488 142.616C253.776 143.81 262.759 142.531 265.78 139.013C266.383 138.312 266.546 137.587 266.265 136.86C265.427 134.687 261.014 132.791 255.023 132.029C252.053 131.652 249.253 131.463 246.641 131.463Z" fill="#F7B686"/>
<path d="M225.582 135.397V132.329L270.567 132.051L270.503 135.397H225.582Z" fill="#CE745F"/>
<path d="M227.345 132.242C231.438 128.844 240.776 125.854 256.842 127.896C267.305 129.226 272.771 133.265 269.751 136.78C266.08 141.053 255.398 142.572 239.662 141.157C228.834 140.184 222.227 136.492 227.345 132.242Z" fill="#CE745F"/>
<path d="M227.345 129.288C231.438 125.889 240.776 122.9 256.842 124.942C267.305 126.271 272.771 130.31 269.751 133.825C266.08 138.099 255.398 139.617 239.662 138.203C228.834 137.229 222.227 133.537 227.345 129.288Z" fill="#E28569"/>
<path d="M249.963 138.005C247.229 138.005 244.222 137.858 240.961 137.565C234.176 136.956 229.507 135.121 228.775 132.778C228.335 131.369 229.359 130.147 230.294 129.37C232.491 127.546 239.36 123.526 255.646 125.597C261.983 126.402 266.506 128.421 267.451 130.867C267.825 131.838 267.616 132.825 266.845 133.723C265.238 135.593 262.156 136.869 257.684 137.516C255.428 137.842 252.847 138.005 249.963 138.005ZM230.74 129.905C229.617 130.838 229.179 131.735 229.441 132.571C230.077 134.609 234.624 136.298 241.023 136.873C254.312 138.067 263.294 136.788 266.316 133.27C266.918 132.569 267.081 131.844 266.8 131.117C265.962 128.944 261.549 127.048 255.559 126.286C249.342 125.496 243.874 125.533 239.307 126.396C234.662 127.273 232.085 128.788 230.74 129.905Z" fill="#F7B686"/>
<path d="M244.035 135.461L244.344 135.012C244.457 134.849 244.168 134.687 243.682 134.633C242.537 134.506 241.468 134.313 240.685 134.1C240.304 133.997 240.22 133.818 240.481 133.681L240.662 133.586C240.979 133.421 241.667 133.383 242.135 133.505C243.04 133.739 244.204 133.94 245.514 134.036C247.747 134.198 249.1 133.785 249.514 133.186C249.913 132.608 249.387 132.254 247.278 131.769C244.361 131.115 241.522 130.4 242.154 129.486C242.704 128.689 244.77 127.994 248.5 128.227C248.945 128.254 249.338 128.117 249.437 127.974L249.776 127.483C249.896 127.308 250.431 127.198 250.969 127.237C251.508 127.277 251.846 127.45 251.725 127.625L251.443 128.034C251.332 128.194 251.605 128.356 252.081 128.411C253.037 128.519 253.778 128.656 254.362 128.798C254.782 128.899 254.882 129.09 254.598 129.233L254.419 129.323C254.106 129.48 253.452 129.516 252.988 129.405C252.337 129.25 251.401 129.079 250.093 128.983C247.672 128.807 246.426 129.224 246.136 129.644C245.759 130.191 247.417 130.367 249.892 130.944C252.826 131.622 254.442 132.393 254.066 133.343C253.664 134.357 251.388 134.92 247.315 134.83C246.862 134.82 246.476 134.939 246.376 135.083L246.015 135.605C245.895 135.78 245.36 135.89 244.822 135.851L244.791 135.848C244.252 135.809 243.914 135.635 244.035 135.461Z" fill="#F7B686"/>
<path d="M226.072 130.079V127.011L271.057 126.733L270.993 130.079H226.072Z" fill="#CE745F"/>
<path d="M227.835 126.925C231.929 123.526 241.266 120.537 257.332 122.579C267.795 123.909 273.261 127.947 270.241 131.463C266.57 135.736 255.888 137.254 240.152 135.84C229.324 134.867 222.718 131.174 227.835 126.925Z" fill="#CE745F"/>
<path d="M227.835 123.97C231.929 120.571 241.266 117.582 257.332 119.624C267.795 120.954 273.261 124.992 270.241 128.508C266.57 132.781 255.888 134.299 240.152 132.885C229.324 131.912 222.718 128.219 227.835 123.97Z" fill="#E28569"/>
<path d="M250.45 132.687C247.717 132.687 244.71 132.541 241.449 132.248C234.664 131.638 229.995 129.803 229.263 127.46C228.824 126.052 229.847 124.83 230.783 124.053C232.98 122.229 239.848 118.209 256.135 120.279C262.472 121.084 266.995 123.104 267.939 125.549C268.313 126.52 268.104 127.507 267.333 128.405C265.726 130.275 262.644 131.551 258.172 132.198C255.916 132.524 253.335 132.687 250.45 132.687ZM247.665 120.403C244.81 120.403 242.18 120.628 239.795 121.078C235.151 121.956 232.573 123.471 231.228 124.587C230.105 125.52 229.668 126.417 229.929 127.253C230.565 129.291 235.112 130.98 241.512 131.555C254.8 132.749 263.782 131.47 266.804 127.953C267.406 127.251 267.569 126.527 267.289 125.799C266.45 123.626 262.037 121.73 256.047 120.969C253.076 120.591 250.277 120.403 247.665 120.403Z" fill="#F7B686"/>
<path d="M244.527 130.143L244.836 129.695C244.949 129.532 244.66 129.37 244.174 129.316C243.028 129.188 241.96 128.996 241.176 128.783C240.796 128.679 240.712 128.5 240.973 128.363L241.154 128.269C241.471 128.103 242.159 128.066 242.627 128.187C243.532 128.422 244.696 128.623 246.006 128.718C248.239 128.881 249.592 128.468 250.006 127.869C250.405 127.291 249.879 126.937 247.77 126.452C244.853 125.798 242.014 125.082 242.646 124.168C243.196 123.371 245.262 122.677 248.992 122.909C249.437 122.937 249.83 122.8 249.929 122.656L250.268 122.165C250.388 121.991 250.923 121.88 251.461 121.92C252 121.959 252.338 122.133 252.217 122.308L251.935 122.716C251.824 122.876 252.097 123.039 252.573 123.093C253.529 123.202 254.27 123.338 254.854 123.48C255.274 123.582 255.374 123.772 255.09 123.915L254.91 124.005C254.598 124.163 253.944 124.199 253.48 124.088C252.828 123.932 251.893 123.761 250.585 123.666C248.164 123.489 246.918 123.906 246.628 124.327C246.251 124.873 247.909 125.049 250.384 125.627C253.318 126.304 254.934 127.075 254.558 128.026C254.156 129.04 251.88 129.603 247.807 129.512C247.354 129.502 246.968 129.621 246.868 129.765L246.508 130.287C246.387 130.462 245.853 130.572 245.314 130.533L245.283 130.53C244.744 130.491 244.406 130.318 244.527 130.143Z" fill="#F7B686"/>
<path d="M236.502 123.4V120.332L281.487 120.054L281.423 123.4H236.502Z" fill="#CE745F"/>
<path d="M238.265 120.246C242.358 116.847 251.696 113.858 267.762 115.9C278.225 117.23 283.69 121.268 280.67 124.784C276.999 129.057 266.318 130.575 250.582 129.161C239.754 128.188 233.147 124.495 238.265 120.246Z" fill="#CE745F"/>
<path d="M238.265 117.29C242.358 113.891 251.696 110.902 267.762 112.944C278.225 114.274 283.69 118.312 280.67 121.828C276.999 126.101 266.318 127.619 250.582 126.205C239.754 125.232 233.147 121.539 238.265 117.29Z" fill="#E28569"/>
<path d="M260.88 126.008C258.146 126.008 255.14 125.861 251.879 125.568C245.094 124.958 240.425 123.124 239.693 120.78C239.253 119.372 240.276 118.15 241.212 117.373C243.409 115.549 250.277 111.529 266.564 113.599C272.902 114.405 277.424 116.424 278.368 118.87C278.743 119.84 278.534 120.828 277.762 121.725C276.156 123.596 273.074 124.872 268.602 125.518C266.346 125.844 263.765 126.008 260.88 126.008ZM258.094 113.723C255.24 113.723 252.61 113.948 250.224 114.399C245.581 115.276 243.003 116.791 241.658 117.908C240.535 118.84 240.097 119.737 240.358 120.573C240.995 122.612 245.541 124.3 251.941 124.876C265.229 126.069 274.212 124.79 277.233 121.273C277.836 120.571 277.999 119.847 277.718 119.12C276.88 116.947 272.467 115.051 266.476 114.289C263.506 113.912 260.707 113.723 258.094 113.723Z" fill="#F7B686"/>
<path d="M229.506 118.995V115.926L274.491 115.648L274.427 118.995H229.506Z" fill="#CE745F"/>
<path d="M231.269 115.84C235.362 112.442 244.7 109.452 260.766 111.494C271.228 112.824 276.694 116.862 273.674 120.378C270.003 124.651 259.322 126.17 243.586 124.756C232.757 123.782 226.151 120.09 231.269 115.84Z" fill="#CE745F"/>
<path d="M231.269 112.885C235.362 109.486 244.7 106.497 260.766 108.539C271.228 109.869 276.694 113.907 273.674 117.422C270.003 121.696 259.322 123.214 243.586 121.8C232.757 120.827 226.151 117.134 231.269 112.885Z" fill="#E28569"/>
<path d="M253.886 121.603C251.152 121.603 248.146 121.456 244.884 121.163C238.1 120.553 233.431 118.719 232.699 116.375C232.259 114.967 233.282 113.745 234.218 112.968C236.415 111.144 243.283 107.124 259.57 109.195C265.907 110 270.43 112.02 271.374 114.465C271.749 115.436 271.539 116.423 270.768 117.321C269.162 119.191 266.08 120.467 261.607 121.114C259.352 121.44 256.771 121.603 253.886 121.603ZM234.664 113.502C233.54 114.436 233.103 115.332 233.364 116.168C234.001 118.207 238.547 119.895 244.947 120.471C258.235 121.664 267.217 120.385 270.239 116.868C270.842 116.167 271.005 115.442 270.724 114.715C269.885 112.542 265.472 110.646 259.482 109.884C253.266 109.094 247.798 109.131 243.23 109.994C238.586 110.871 236.009 112.386 234.664 113.502Z" fill="#F7B686"/>
<path d="M247.961 119.058L248.27 118.61C248.382 118.447 248.094 118.284 247.608 118.23C246.462 118.103 245.394 117.91 244.61 117.697C244.23 117.594 244.145 117.415 244.407 117.278L244.588 117.184C244.904 117.018 245.593 116.98 246.061 117.102C246.966 117.336 248.13 117.537 249.44 117.633C251.672 117.796 253.026 117.382 253.44 116.783C253.839 116.206 253.313 115.851 251.203 115.366C248.286 114.712 245.448 113.997 246.079 113.083C246.63 112.286 248.695 111.591 252.426 111.824C252.871 111.851 253.263 111.715 253.363 111.571L253.702 111.08C253.822 110.905 254.357 110.795 254.895 110.835C255.433 110.874 255.772 111.047 255.651 111.222L255.369 111.631C255.258 111.791 255.531 111.953 256.006 112.008C256.963 112.116 257.704 112.253 258.288 112.395C258.707 112.497 258.807 112.687 258.524 112.83L258.344 112.92C258.032 113.077 257.378 113.113 256.914 113.002C256.262 112.847 255.327 112.676 254.019 112.581C251.598 112.404 250.352 112.821 250.062 113.241C249.685 113.788 251.343 113.964 253.818 114.541C256.752 115.219 258.368 115.99 257.992 116.94C257.59 117.954 255.314 118.517 251.241 118.427C250.788 118.416 250.401 118.536 250.302 118.68L249.941 119.202C249.821 119.377 249.286 119.487 248.748 119.448L248.717 119.445C248.178 119.406 247.84 119.233 247.961 119.058Z" fill="#F7B686"/>
<path d="M252.217 162.848C250.637 160.975 248.035 154.377 250.544 153.196C253.054 152.014 257.187 159.6 257.039 161C256.892 162.399 253.217 164.032 252.217 162.848Z" fill="#F7B686"/>
<path d="M247.569 163.967C246.226 162.375 244.014 156.768 246.147 155.764C248.28 154.76 251.793 161.207 251.667 162.397C251.542 163.586 248.418 164.973 247.569 163.967Z" fill="#F7B686"/>
<path d="M257.47 161.543C255.793 159.414 253.034 151.913 255.695 150.569C258.357 149.226 262.741 157.851 262.584 159.442C262.427 161.034 258.529 162.89 257.47 161.543Z" fill="#F7B686"/>
<path d="M261.857 157.176C260.317 155.219 257.781 148.326 260.227 147.091C262.673 145.856 266.701 153.783 266.557 155.245C266.414 156.708 262.831 158.414 261.857 157.176Z" fill="#F7B686"/>
<path d="M252.215 163.027C252.164 163.027 252.113 163.005 252.077 162.963C251.207 161.932 250.172 159.716 249.67 157.808C249.006 155.283 249.288 153.587 250.465 153.033C251.969 152.325 253.783 154.424 254.731 155.739C254.789 155.82 254.771 155.932 254.69 155.99C254.609 156.048 254.496 156.029 254.438 155.949C252.937 153.867 251.545 152.922 250.619 153.358C249.266 153.995 249.663 156.362 250.019 157.717C250.577 159.84 251.638 161.885 252.353 162.732C252.417 162.808 252.407 162.921 252.331 162.985C252.297 163.013 252.256 163.027 252.215 163.027Z" fill="#D89364"/>
<path d="M247.57 164.147C247.518 164.147 247.468 164.125 247.432 164.083C246.357 162.809 244.697 158.977 245.159 156.866C245.294 156.248 245.601 155.823 246.071 155.602C246.86 155.229 247.874 155.709 249 156.989C249.066 157.064 249.058 157.177 248.984 157.243C248.909 157.308 248.795 157.301 248.729 157.226C248.026 156.427 247.02 155.552 246.225 155.927C245.862 156.098 245.621 156.44 245.511 156.943C245.079 158.918 246.7 162.656 247.707 163.851C247.772 163.927 247.762 164.04 247.686 164.104C247.652 164.133 247.611 164.147 247.57 164.147Z" fill="#D89364"/>
<path d="M257.467 161.723C257.413 161.723 257.36 161.7 257.325 161.655C256.612 160.749 255.771 159.005 255.182 157.21C254.775 155.971 254.148 153.646 254.515 151.993C254.687 151.223 255.055 150.69 255.611 150.409C256.563 149.928 257.787 150.536 259.15 152.167C259.214 152.243 259.204 152.356 259.127 152.42C259.051 152.484 258.937 152.473 258.874 152.397C258.007 151.36 256.766 150.229 255.773 150.73C255.319 150.96 255.014 151.411 254.868 152.071C254.279 154.72 256.321 159.797 257.608 161.432C257.67 161.51 257.656 161.624 257.578 161.685C257.545 161.711 257.505 161.723 257.467 161.723Z" fill="#D89364"/>
<path d="M261.86 157.356C261.806 157.356 261.754 157.332 261.718 157.288C261.414 156.901 261.076 156.336 260.74 155.652C259.957 154.058 259.355 152.2 259.131 150.683C258.839 148.711 259.191 147.413 260.147 146.93C260.526 146.74 260.952 146.731 261.414 146.906C263.256 147.603 265.369 151.155 266.282 153.454C266.514 154.038 266.782 154.826 266.739 155.263C266.729 155.362 266.642 155.433 266.542 155.424C266.443 155.414 266.371 155.327 266.38 155.228C266.408 154.947 266.25 154.349 265.947 153.586C265.084 151.413 263.006 147.894 261.286 147.242C260.918 147.103 260.598 147.106 260.31 147.251C258.508 148.161 259.694 152.708 261.064 155.494C261.389 156.156 261.713 156.699 262.001 157.065C262.063 157.143 262.049 157.256 261.971 157.318C261.938 157.344 261.899 157.356 261.86 157.356Z" fill="#D89364"/>
<path d="M308.708 35.2197C308.708 35.2197 308.304 39.8119 314.222 40.9192C320.141 42.0265 318.957 45.3486 317.773 47.1203C316.59 48.8921 324.505 45.4224 331.829 51.9925C339.153 58.5627 328.278 64.9853 322.36 64.1732C316.442 63.3612 293.998 58.4151 292.903 56.7172C291.808 55.0192 290.297 50.3651 293.287 49.7312C298.64 48.5967 292.1 44.4499 295.579 42.5737C299.057 40.6977 308.708 35.2197 308.708 35.2197Z" fill="#2F1A31"/>
<path d="M273.024 58.0914C268.688 54.8606 265.325 49.7919 263.017 43.0047C261.274 37.8787 260.787 33.5619 260.768 33.3807L270.822 32.05L265.795 32.7154L270.821 32.0398C271.243 35.7464 273.651 46.237 279.659 50.233C282.387 52.0467 287.508 54.2604 291.537 53.1067L292.904 62.9158C286.047 64.8797 279.067 62.1613 273.911 58.718C273.611 58.5175 273.315 58.3084 273.024 58.0914Z" fill="#EAA97D"/>
<path d="M261.157 29.7003C260.584 29.7861 260.045 29.3888 259.959 28.8172L258.762 20.865C258.676 20.2935 259.074 19.7557 259.647 19.6699C260.219 19.5841 260.758 19.9813 260.844 20.5529L262.041 28.5051C262.127 29.0765 261.729 29.6143 261.157 29.7003Z" fill="#EAA97D"/>
<path d="M263.812 29.2947C263.238 29.3808 262.698 28.9826 262.612 28.41L261.273 19.5209C261.187 18.9483 261.586 18.4093 262.16 18.3232C262.734 18.2371 263.274 18.6354 263.36 19.208L264.698 28.0971C264.785 28.6697 264.386 29.2088 263.812 29.2947Z" fill="#EAA97D"/>
<path d="M266.48 28.8942C265.906 28.9803 265.366 28.582 265.28 28.0094L263.783 18.0682C263.697 17.4956 264.096 16.9565 264.67 16.8706C265.244 16.7846 265.784 17.1827 265.87 17.7553L267.367 27.6965C267.453 28.2691 267.054 28.8082 266.48 28.8942Z" fill="#EAA97D"/>
<path d="M267.976 33.9602L267.651 33.773C267.043 33.4233 266.833 32.6408 267.183 32.0342L270.597 26.125C270.948 25.5184 271.732 25.3082 272.34 25.658L272.665 25.8452C273.273 26.195 273.484 26.9774 273.133 27.584L269.719 33.493C269.368 34.0998 268.584 34.3099 267.976 33.9602Z" fill="#EAA97D"/>
<path d="M269.15 28.4936C268.576 28.5797 268.036 28.1815 267.95 27.6088L266.75 19.6401C266.664 19.0674 267.063 18.5285 267.637 18.4424C268.21 18.3563 268.751 18.7545 268.837 19.3271L270.036 27.2959C270.123 27.8686 269.724 28.4077 269.15 28.4936Z" fill="#EAA97D"/>
<path d="M260.743 33.3839C260.743 33.3839 259.236 27.0938 259.924 25.7833C260.613 24.4729 268.152 23.3781 269.094 24.7435C270.036 26.109 270.817 32.0401 270.817 32.0401L260.743 33.3839Z" fill="#EAA97D"/>
<path d="M265.644 33.3265C265.576 33.3265 265.514 33.2794 265.499 33.2098C265.495 33.1933 265.148 31.5433 266.522 30.7213C267.781 29.9674 269.02 28.4169 269.032 28.4013C269.083 28.337 269.177 28.3256 269.242 28.377C269.306 28.4281 269.317 28.5218 269.266 28.5863C269.214 28.6518 267.981 30.1955 266.675 30.9768C265.488 31.6873 265.777 33.0867 265.79 33.1458C265.808 33.2262 265.757 33.3056 265.676 33.3231C265.666 33.3254 265.655 33.3265 265.644 33.3265Z" fill="#E08B65"/>
<path d="M360.865 131.303C360.865 131.303 368.623 130.059 370.963 130.882C373.303 131.704 378.808 135.499 378.423 132.23C378.203 130.354 372.683 126.472 371.277 125.207C369.871 123.943 369.096 121.981 367.21 122.143C366.315 122.219 365.261 123.903 363.776 124.693C361.247 126.038 358.24 126.754 358.24 126.754C358.24 126.754 355.919 129.465 356.985 130.475C358.521 131.93 360.865 131.303 360.865 131.303Z" fill="#2F1A31"/>
<path d="M307.532 185.157C307.532 185.157 307.546 188.624 305.225 189.67C302.904 190.715 296.122 191.794 298.73 193.948C300.227 195.184 307.082 194.159 309.023 194.103C310.966 194.046 312.813 194.838 314.219 193.499C315.765 192.027 313.971 184.97 313.971 184.97C313.971 184.97 312.32 185.89 310.812 185.895C308.639 185.901 307.532 185.157 307.532 185.157Z" fill="#2F1A31"/>
<path d="M290.547 108.401C291.134 114.872 292.136 123.249 293.84 133.47C297.104 153.048 300.958 172.776 302.848 182.234C303.525 185.617 306.376 188.091 309.755 188.226L311.571 188.299C315.225 188.445 318.191 185.313 317.924 181.589L313.336 117.601L312.721 106.143C312.721 106.143 289.577 97.7029 290.547 108.401Z" fill="#436E8E"/>
<path d="M331.578 101.858C331.377 104.554 322.14 108.779 310.147 107.813C298.154 106.847 288.675 105.313 288.876 102.618C289.078 99.9223 298.883 97.0857 310.876 98.0517C322.869 99.0178 331.779 99.1626 331.578 101.858Z" fill="#2F1A31"/>
<path d="M299.195 104.256L315.862 140.312C318.453 145.917 324.457 149.128 330.57 148.176C333.994 147.643 336.287 144.377 335.622 140.984L328.349 103.904C328.146 102.991 324.926 102.571 324.011 102.496C316.425 101.867 298.725 100.877 299.195 104.256Z" fill="#436E8E"/>
<path d="M317.15 58.2694C317.15 58.2694 311.679 49.7679 300.015 52.9296C294.503 54.4238 287.677 54.2239 287.201 64.6283C286.774 73.9708 285.949 84.8628 288.878 102.618C288.878 102.618 307.73 95.2788 331.58 101.858C331.502 100.838 330.334 74.4822 324.72 60.2645C323.106 56.1767 318.979 60.9736 317.15 58.2694Z" fill="#5EC189"/>
<path d="M330.497 57.6537L320.377 67.2368C320.377 67.2368 289.647 70.8321 287.043 65.5105C282.743 56.7237 286.995 51.1704 286.995 51.1704C286.995 51.1704 296.507 52.229 304.386 51.9577C306.183 51.8959 309.541 51.9945 311.307 52.0662C323.621 52.5665 330.497 57.6537 330.497 57.6537Z" fill="#5EC189"/>
<path d="M330.494 57.6541C331.381 58.6419 331.175 61.9411 327.732 64.8365C324.288 67.732 321.465 68.6982 320.374 67.2373C319.553 66.1374 320.554 61.7589 323.847 59.0691C327.239 56.2987 329.861 56.9498 330.494 57.6541Z" fill="#2F1A31"/>
<path d="M323.565 102.459C323.565 102.459 307.286 99.7686 291.37 103.272C290.639 103.433 290.141 104.111 290.212 104.854L290.776 110.782L307.432 106.646L323.565 102.459Z" fill="#436E8E"/>
<path d="M309.055 51.9909C307.454 54.5592 302.991 56.7269 300.234 55.8502C297.885 55.1063 299.512 51.9798 299.512 51.9798C300.571 51.7897 301.069 51.1623 300.993 50.091L300.896 48.7749L300.848 48.1226L300.699 46.0373L300.564 44.1649L300.009 36.4854L303.206 43.8971L303.75 45.156L305.624 49.5005C306.223 50.8854 307.528 51.8284 309.033 51.9886C309.04 51.9886 309.049 51.9909 309.055 51.9909Z" fill="#F7B686"/>
<path d="M303.75 45.1555C303.75 45.1555 302.821 47.5933 300.848 48.1221L300.699 46.0368C301.913 45.5951 303.75 45.1555 303.75 45.1555Z" fill="#2F1A31"/>
<path d="M308.71 35.2197C308.71 35.2197 308.412 36.4805 309.138 39.0638C310.201 42.8439 305.872 44.4215 304.764 43.3429C304.627 43.2095 304.809 36.7801 304.809 36.7801L306.192 35.9599L308.71 35.2197Z" fill="#2F1A31"/>
<path d="M299.658 46.6161C303.652 46.6161 306.889 42.6299 306.889 37.7127C306.889 32.7955 303.652 28.8093 299.658 28.8093C295.664 28.8093 292.426 32.7955 292.426 37.7127C292.426 42.6299 295.664 46.6161 299.658 46.6161Z" fill="#F7B686"/>
<path d="M296.796 30.8782C296.997 31.1517 295.859 35.7319 304.362 36.8258C312.865 37.9195 307.757 27.6246 301.483 27.3918C292.424 27.0557 291.105 33.1342 291.975 35.3218C292.846 37.5093 296.796 30.8782 296.796 30.8782Z" fill="#2F1A31"/>
<path d="M303.424 35.3674C303.424 35.3674 306.899 39.0234 305.693 42.7604C305.693 42.7604 307.709 40.5628 307.753 39.7426C307.798 38.9221 307.262 35.9598 307.262 35.9598L303.424 35.3674Z" fill="#2F1A31"/>
<path d="M305.923 39.0552C305.104 39.8357 303.958 39.9157 303.364 39.2339C302.771 38.5521 302.953 37.3665 303.773 36.5858C304.592 35.8053 305.737 35.7254 306.331 36.4072C306.925 37.0891 306.742 38.2746 305.923 39.0552Z" fill="#F7B686"/>
<path d="M298.959 37.7986C298.911 37.7855 298.87 37.751 298.85 37.7011C298.816 37.6171 298.857 37.5216 298.941 37.4879C298.991 37.468 300.098 36.8998 301.07 37.9617C301.132 38.0285 301.13 38.1314 301.065 38.1938C300.999 38.2563 300.907 38.2386 300.832 38.188C300.076 37.6812 299.105 37.7765 299.063 37.7927C299.029 37.8065 298.993 37.8076 298.959 37.7986Z" fill="#060633"/>
<path d="M300.69 39.5443C300.702 39.9359 300.482 40.2606 300.197 40.2696C299.912 40.2786 299.671 39.9685 299.659 39.5771C299.646 39.1856 299.867 38.8609 300.152 38.8518C300.436 38.8428 300.677 39.1528 300.69 39.5443Z" fill="#060633"/>
<path d="M293.088 38.6544C293.038 38.6605 292.986 38.6444 292.949 38.6059C292.886 38.541 292.887 38.4373 292.952 38.3741C292.99 38.3369 293.797 37.3906 295.102 38.0027C295.184 38.0413 295.222 38.1367 295.185 38.2195C295.148 38.3023 295.057 38.3208 294.968 38.3027C294.076 38.1213 293.214 38.5788 293.182 38.6094C293.155 38.6351 293.122 38.6499 293.088 38.6544Z" fill="#060633"/>
<path d="M295.489 39.5577C295.65 39.9149 295.57 40.2991 295.31 40.4157C295.05 40.5322 294.709 40.3371 294.548 39.9799C294.387 39.6227 294.467 39.2385 294.727 39.122C294.987 39.0052 295.328 39.2003 295.489 39.5577Z" fill="#060633"/>
<path d="M318.06 46.4707L317.854 46.0616C318.117 45.883 318.783 43.898 318.282 42.2613C317.837 40.8083 316.651 40.0691 314.757 40.0645C309.138 40.0509 308.229 35.455 308.221 35.4086L308.672 35.3257C308.704 35.5001 309.529 39.594 314.758 39.6067C317.55 39.6133 318.493 41.1267 318.793 42.3952C319.206 44.1414 318.546 46.2265 318.06 46.4707Z" fill="#2F1A31"/>
<path d="M328.689 148.339C335.526 148.167 351.747 141.539 360.753 137.629C364.254 136.11 365.865 132.053 364.361 128.551L364.172 128.111C362.922 125.2 359.876 123.482 356.732 123.914L325.736 128.171C325.736 128.171 315.957 148.659 328.689 148.339Z" fill="#436E8E"/>
<path d="M314.264 137.364C314.214 137.228 309.192 123.708 307.606 119.463C306.043 115.281 301.176 111.922 301.127 111.888L301.369 111.535C301.574 111.675 306.397 115.005 308.008 119.313C309.594 123.558 314.616 137.079 314.666 137.215L314.264 137.364Z" fill="#020202"/>
<path d="M295.939 43.0673C295.939 43.0673 296.612 44.5801 298.035 44.5848C299.786 44.5906 300.13 42.7664 300.13 42.7664C300.13 42.7664 297.992 43.4811 295.939 43.0673Z" fill="white"/>
<path d="M340.581 73.6369C345.959 73.038 351.43 70.3629 356.861 65.6725C360.962 62.1301 363.57 58.6519 363.679 58.5055L355.68 52.2833L359.679 55.3945L355.686 52.2749C353.443 55.2595 346.049 63.0937 338.841 63.5093C335.746 63.6869 332.898 62.4613 330.153 59.7657C329.744 59.3644 329.171 59.1772 328.603 59.2577C327.503 59.4135 325.593 60.1284 323.029 62.7682C321.238 64.6128 322.511 66.4131 322.511 66.4131C327.432 71.5685 333.306 74.0985 339.499 73.7298C339.859 73.708 340.22 73.6771 340.581 73.6369Z" fill="#EAA97D"/>
<path d="M365.205 55.133C365.655 55.4961 366.321 55.4252 366.685 54.9758L371.748 48.7197C372.112 48.2701 372.041 47.6052 371.591 47.2421C371.14 46.8791 370.474 46.9497 370.11 47.3994L365.047 53.6554C364.683 54.105 364.754 54.7699 365.205 55.133Z" fill="#EAA97D"/>
<path d="M363.123 53.4448C363.575 53.8086 364.243 53.7377 364.607 53.2873L370.267 46.2942C370.631 45.8436 370.56 45.1773 370.109 44.8136C369.657 44.4498 368.99 44.5208 368.625 44.9712L362.966 51.9642C362.601 52.4146 362.672 53.081 363.123 53.4448Z" fill="#EAA97D"/>
<path d="M361.022 51.751C361.473 52.1148 362.141 52.0439 362.506 51.5934L368.835 43.7728C369.199 43.3222 369.128 42.656 368.677 42.2921C368.226 41.9283 367.558 41.9993 367.193 42.4497L360.864 50.2704C360.499 50.7208 360.57 51.3872 361.022 51.751Z" fill="#EAA97D"/>
<path d="M357.161 55.3658L357.537 55.3685C358.238 55.3735 358.816 54.8048 358.822 54.1047L358.871 47.2839C358.876 46.5837 358.306 46.0068 357.605 46.0017L357.229 45.9991C356.528 45.994 355.949 46.5627 355.944 47.2628L355.895 54.0836C355.89 54.7838 356.46 55.3608 357.161 55.3658Z" fill="#EAA97D"/>
<path d="M358.92 50.0574C359.372 50.4213 360.039 50.3503 360.404 49.8999L365.478 43.6309C365.842 43.1803 365.771 42.5141 365.32 42.1503C364.868 41.7865 364.2 41.8574 363.836 42.3078L358.762 48.5768C358.398 49.0272 358.469 49.6936 358.92 50.0574Z" fill="#EAA97D"/>
<path d="M363.691 58.5193C363.691 58.5193 368.179 53.8539 368.249 52.3756C368.319 50.8975 362.371 46.148 360.866 46.8504C359.361 47.5529 355.682 52.2756 355.682 52.2756L363.691 58.5193Z" fill="#EAA97D"/>
<path d="M359.567 56.0161C359.53 56.0161 359.494 56.003 359.465 55.9765C359.405 55.9206 359.401 55.8265 359.457 55.7661C359.498 55.7215 360.457 54.6605 359.793 53.4483C359.062 52.1152 358.781 50.1609 358.769 50.0785C358.758 49.9971 358.814 49.9217 358.896 49.9102C358.976 49.8998 359.053 49.9556 359.065 50.037C359.068 50.0567 359.351 52.0204 360.055 53.3054C360.823 54.708 359.688 55.9561 359.676 55.9686C359.647 56.0001 359.607 56.0161 359.567 56.0161Z" fill="#E08B65"/>
</svg>
