<svg width="24" height="24" viewBox="0 0 24 24" fill="none" xmlns="http://www.w3.org/2000/svg">
<path fill-rule="evenodd" clip-rule="evenodd" d="M8.08403 2.6C8.24603 2.235 8.60703 2 9.00703 2H16.984C17.734 2 18.223 2.79 17.887 3.462L15.618 8H18.976C19.876 8 20.326 9.088 19.69 9.724L7.73703 21.677C6.98303 22.431 5.72703 21.655 6.06503 20.644L8.61303 13H5.01503C4.84677 13 4.68118 12.958 4.5333 12.8777C4.38542 12.7974 4.25994 12.6815 4.16824 12.5404C4.07654 12.3994 4.02154 12.2376 4.00823 12.0699C3.99492 11.9022 4.02373 11.7338 4.09203 11.58L8.08403 2.6Z" fill="#5EC189"/>
</svg>
