<svg width="21" height="28" viewBox="0 0 21 28" fill="none" xmlns="http://www.w3.org/2000/svg">
<path d="M4.32375 16.3645L0.317 24.9006C0.191573 25.1586 0.324408 25.3207 0.745033 25.2396L4.00643 24.532C4.07099 24.5093 4.14206 24.5148 4.20242 24.547C4.26268 24.5793 4.30673 24.6353 4.32375 24.7015L5.79213 27.709C5.93227 28.0334 6.09463 28.0997 6.22006 27.8417L10.4851 18.9076L4.32375 16.3645Z" fill="#DE7818"/>
<path d="M16.6758 16.3645L20.6826 24.9006C20.8154 25.1586 20.6752 25.3207 20.2546 25.2396L16.9932 24.532C16.9286 24.5102 16.8578 24.516 16.7978 24.5481C16.7377 24.5802 16.6936 24.6358 16.6758 24.7015L15.2075 27.7091C15.0673 28.0334 14.9124 28.0997 14.7795 27.8417L10.5145 18.9076L16.6758 16.3645Z" fill="#DE7818"/>
<path d="M9.29695 21.3916C9.29695 21.399 9.28213 21.3916 9.26742 21.3916C7.03166 21.144 4.93555 20.1823 3.29059 18.6494C3.28318 18.6421 3.26106 18.6347 3.26846 18.6273L3.45295 18.2366C3.46026 18.2219 3.47507 18.2588 3.48248 18.2661C5.06147 19.733 7.25299 20.6544 9.49615 20.9272C9.50356 20.9272 9.51827 20.9272 9.51827 20.9346L9.29695 21.3916Z" fill="#B35454"/>
<path d="M10.5 20.9789C16.2991 20.9789 21 16.2826 21 10.4894C21 4.6963 16.2991 0 10.5 0C4.70095 0 0 4.6963 0 10.4894C0 16.2826 4.70095 20.9789 10.5 20.9789Z" fill="#F0CD0A"/>
<path d="M10.5 19.5341C15.5003 19.5341 19.5539 15.4847 19.5539 10.4894C19.5539 5.49422 15.5003 1.44482 10.5 1.44482C5.49978 1.44482 1.44629 5.49422 1.44629 10.4894C1.44629 15.4847 5.49978 19.5341 10.5 19.5341Z" fill="#D2B309"/>
<path d="M10.7499 19.4996C15.5871 19.4996 19.5085 15.5822 19.5085 10.7498C19.5085 5.9174 15.5871 2 10.7499 2C5.91257 2 1.99121 5.9174 1.99121 10.7498C1.99121 15.5822 5.91257 19.4996 10.7499 19.4996Z" fill="#E3C101"/>
<path fill-rule="evenodd" clip-rule="evenodd" d="M10.4499 14.7551H12.6025V6.30005H10.4499L8.29736 7.76485V9.61645L10.3385 8.23945H10.4499V14.7551Z" fill="#FFF2B5"/>
<path d="M12.9716 3.08862C16.3317 3.89002 18.7303 6.85152 18.8134 10.3016C18.8965 13.7517 16.6435 16.8251 13.3257 17.7871C15.3623 16.2317 16.7126 13.578 16.7126 10.5632C16.7126 7.37872 15.2073 4.59972 12.9716 3.08862Z" fill="white" fill-opacity="0.2"/>
<path d="M11.7026 21.3917C11.7101 21.3991 11.7248 21.3917 11.7322 21.3917C14.027 21.1042 16.1373 20.1828 17.7238 18.6643C17.7311 18.6569 17.7533 18.6495 17.7459 18.6422L17.5615 18.2515C17.5541 18.2367 17.5393 18.2736 17.5319 18.281C15.9528 19.7479 13.754 20.6545 11.5034 20.9273C11.496 20.9273 11.4813 20.9273 11.4813 20.9347L11.7026 21.3917Z" fill="#B35454"/>
</svg>
