<svg width="16" height="16" viewBox="0 0 16 16" fill="none" xmlns="http://www.w3.org/2000/svg">
<g clip-path="url(#clip0_69_1763)">
<path d="M15.04 8.16675C15.04 7.64675 14.9933 7.14675 14.9067 6.66675H8V9.50675H11.9467C11.7733 10.4201 11.2533 11.1934 10.4733 11.7134V13.5601H12.8533C14.24 12.2801 15.04 10.4001 15.04 8.16675Z" fill="#4285F4"/>
<path d="M8 15.3332C9.98 15.3332 11.64 14.6799 12.8533 13.5599L10.4733 11.7132C9.82 12.1532 8.98667 12.4199 8 12.4199C6.09334 12.4199 4.47334 11.1332 3.89334 9.3999H1.45334V11.2932C2.66001 13.6866 5.13334 15.3332 8 15.3332Z" fill="#34A853"/>
<path d="M3.89332 9.39338C3.74666 8.95338 3.65999 8.48671 3.65999 8.00005C3.65999 7.51338 3.74666 7.04671 3.89332 6.60671V4.71338H1.45332C0.953323 5.70005 0.666656 6.81338 0.666656 8.00005C0.666656 9.18671 0.953323 10.3 1.45332 11.2867L3.35332 9.80671L3.89332 9.39338Z" fill="#FBBC05"/>
<path d="M8.00001 3.58675C9.08001 3.58675 10.04 3.96008 10.8067 4.68008L12.9067 2.58008C11.6333 1.39341 9.98001 0.666748 8.00001 0.666748C5.13334 0.666748 2.66001 2.31341 1.45334 4.71342L3.89334 6.60675C4.47334 4.87341 6.09334 3.58675 8.00001 3.58675Z" fill="#EA4335"/>
</g>
<defs>
<clipPath id="clip0_69_1763">
<rect width="16" height="16" fill="white"/>
</clipPath>
</defs>
</svg>
